<?xml version="1.0" encoding="utf-8"?>
<!-- Generator: Adobe Illustrator 25.0.0, SVG Export Plug-In . SVG Version: 6.00 Build 0)  -->
<svg version="1.1" id="svg" xmlns="http://www.w3.org/2000/svg" xmlns:xlink="http://www.w3.org/1999/xlink" x="0px" y="0px"
	 viewBox="0 0 79.8 103" style="enable-background:new 0 0 79.8 103;" xml:space="preserve">
<style type="text/css">
	.st0{fill-rule:evenodd;clip-rule:evenodd;fill:#747474;}
	.st1{fill-rule:evenodd;clip-rule:evenodd;fill:#444343;}
	.st2{fill-rule:evenodd;clip-rule:evenodd;fill:#4494A3;}
	.st3{fill-rule:evenodd;clip-rule:evenodd;fill:#686868;}
	.st4{fill-rule:evenodd;clip-rule:evenodd;fill:#648C9C;}
</style>
<path id="path0" class="st0" d="M45.1,18.7c-0.6,0.9-3.2,3.6-3.5,3.6c-0.1,0-0.1,0.1,0,0.2c0.1,0.2-0.1,0.2-0.5,0.2
	c-0.1,0-0.1,0.1,0,0.1c0.1,0.1,0,0.2-0.2,0.2c-0.1,0-0.2,0.1-0.2,0.2c0.1,0.1,0,0.2-0.2,0.3c-0.2,0.1-0.5,0.3-0.8,0.6
	c-0.2,0.3-0.5,0.5-0.6,0.5c-0.1,0-0.3,0.1-0.5,0.3c-0.1,0.2-0.9,0.7-1.6,1.3c-0.7,0.5-1.4,1-1.4,1.1c0,0.1-0.2,0.1-0.3,0.1
	c-0.2,0-0.4,0.1-0.5,0.3c-0.1,0.2-0.3,0.3-0.4,0.3c-0.1,0-0.3,0.1-0.4,0.3c-0.1,0.2-0.3,0.3-0.5,0.3c-0.1,0-0.2,0.1-0.2,0.2
	c0,0.1-0.1,0.1-0.2,0.1c-0.1-0.1-0.2,0-0.3,0.2c-0.1,0.1-0.3,0.3-0.5,0.3S32,29.5,32,29.5c0,0.1-0.2,0.2-0.4,0.3
	c-0.2,0.1-0.4,0.2-0.4,0.3c0,0.1-0.1,0.1-0.2,0.1c-0.1-0.1-0.2,0-0.2,0.1c0,0.1-0.4,0.4-0.9,0.6s-1,0.6-1.1,0.7
	c-0.1,0.1-0.3,0.2-0.5,0.2c-0.2,0-0.3,0.1-0.3,0.2c0,0.1-0.1,0.1-0.2,0.1c-0.1-0.1-0.2,0-0.2,0.1s-0.3,0.2-0.6,0.4
	c-0.3,0.1-0.6,0.2-0.6,0.3c0,0.1-0.4,0.3-0.9,0.5s-0.9,0.4-1,0.5c-0.2,0.2-1.5,0.8-1.8,0.8c-0.1,0-0.2,0.1-0.2,0.2
	c0,0.1-0.1,0.1-0.2,0.1c-0.1,0-0.3,0-0.3,0.1c0,0.1-0.2,0.2-0.4,0.2c-0.2,0-0.4,0.1-0.4,0.1c-0.1,0.1-0.2,0.1-0.2,0.1
	c-0.2,0-0.7,0.2-1.5,0.6c-0.4,0.2-0.8,0.3-1,0.3c-0.4,0-0.3,0.5,0.3,1c0.5,0.5,0.8,0.6,1.3,0.3c0.3-0.2,0.9-0.4,1.1-0.4
	c0.1,0,0.2-0.1,0.2-0.1c0.1-0.1,0.3-0.1,0.4-0.1c0.2,0,0.3-0.1,0.3-0.2c0-0.1,0.1-0.1,0.2-0.1c0.1,0.1,0.4,0,0.5-0.2
	c0.2-0.2,0.4-0.3,0.5-0.3c0.3,0,0.8-0.2,1.5-0.6c0.3-0.2,0.7-0.3,0.9-0.3c0.1,0,0.3-0.1,0.3-0.2c0-0.1,0.1-0.2,0.3-0.2
	c0.2,0,0.3-0.1,0.3-0.2c0-0.1,0.1-0.2,0.2-0.2c0.1,0,0.5-0.1,0.8-0.3c0.3-0.2,0.6-0.3,0.6-0.2c0,0.1,0.1,0,0.3-0.2
	c0.2-0.1,0.5-0.3,0.8-0.4c0.3-0.1,0.5-0.2,0.4-0.3c0-0.1,0.1-0.1,0.3-0.1c0.2,0,0.4-0.1,0.4-0.1c0-0.1,0.3-0.2,0.6-0.4
	c0.3-0.1,0.6-0.3,0.6-0.4c0-0.1,0.1-0.1,0.2-0.1c0.3,0,1.3-0.5,1.6-0.8c0.2-0.1,0.3-0.2,0.3-0.1c0,0.1,0.1,0,0.2-0.2
	c0.1-0.2,0.3-0.3,0.3-0.2c0.1,0.1,0.5-0.1,0.9-0.3c0.4-0.3,1-0.6,1.3-0.7s0.5-0.3,0.5-0.4c0-0.1,0.1-0.1,0.2-0.1
	c0.1,0,0.5-0.2,0.9-0.5c0.4-0.3,1-0.6,1.4-0.8c0.4-0.2,0.7-0.4,0.7-0.4c0,0,0.4-0.3,0.9-0.5c0.4-0.2,0.8-0.5,0.8-0.5
	c0-0.1,0.1-0.1,0.2-0.1c0.1,0,0.3-0.1,0.5-0.3c0.2-0.2,0.5-0.3,0.6-0.3c0.1,0,0.2-0.1,0.2-0.2c0-0.1,0.1-0.2,0.2-0.2
	c0.2,0,1.6-1,2.4-1.7c0.3-0.3,0.6-0.5,0.7-0.5c0.5,0,0.7-0.9,0.4-1.4c-0.2-0.3-0.3-0.6-0.3-0.8c0-0.2-0.1-0.3-0.2-0.3
	c-0.1,0-0.2-0.2-0.2-0.4c0-0.2-0.1-0.5-0.2-0.5c-0.1-0.1-0.2-0.3-0.2-0.5c0-0.2-0.1-0.4-0.2-0.5C46.1,19,46,18.7,46,18.4
	C46,17.6,45.8,17.7,45.1,18.7 M48,26c-0.1,0.1-0.4,0.1-0.7,0.1c-0.3,0-0.5,0-0.4,0.1c0.1,0.1,0,0.1-0.1,0.1c-0.1,0-0.4,0.1-0.6,0.2
	c-0.3,0.1-0.6,0.2-0.7,0.2c-0.1,0-0.4,0.1-0.7,0.3c-0.3,0.2-0.6,0.4-0.8,0.4c-0.2,0-0.3,0.1-0.3,0.2c0,0.1-0.1,0.1-0.2,0.1
	c-0.2,0-2.4,1-2.5,1.2c0,0.1-0.2,0.1-0.3,0c-0.1,0-0.3,0-0.3,0.2c-0.1,0.1-0.3,0.3-0.6,0.4c-0.3,0.1-0.5,0.2-0.5,0.2
	c0,0.1-0.5,0.4-1.1,0.7c-0.6,0.3-1.1,0.6-1.1,0.6c0,0.1-0.2,0.2-0.5,0.3s-0.7,0.4-0.8,0.5c-0.2,0.2-0.4,0.3-0.5,0.2
	c-0.2-0.1-0.3,0-0.3,0.2c0,0.1-0.1,0.3-0.2,0.3c-0.1,0-0.4,0.2-0.7,0.4s-0.6,0.4-0.7,0.4c-0.1,0-0.3,0.2-0.4,0.3
	c-0.1,0.2-0.4,0.3-0.6,0.3c-0.2,0-0.4,0-0.3,0.1c0.1,0.1-0.3,0.6-0.5,0.6c-0.1,0-1.5,0.9-1.8,1.3c-0.1,0.1-0.3,0.2-0.3,0.2
	c-0.1,0-0.3,0.2-0.5,0.4c-0.2,0.2-0.6,0.5-0.8,0.6c-0.2,0.1-0.5,0.3-0.6,0.4c-0.1,0.1-0.8,0.6-1.4,1.1c-0.7,0.5-1.4,1-1.5,1.2
	c-0.1,0.1-0.3,0.2-0.4,0.2C24,40,24,40,24,40.1c0.1,0.1-0.3,0.6-0.5,0.6c-0.1,0-0.2,0.1-0.2,0.2c0,0.1-0.1,0.2-0.2,0.2
	c-0.6,0-0.8,1.1-0.5,2.3c0.1,0.6,0.3,1.7,0.3,2.5c0,0.8,0.1,1.4,0.2,1.4c0.1,0,0.2-0.1,0.2-0.2c0-0.1,0.2-0.4,0.4-0.6
	c0.6-0.7,1.4-1.8,1.5-2.1c0-0.2,1-1.2,1.2-1.1c0.1,0,0.1,0,0.1-0.1c-0.1-0.2,0.8-1.2,1-1.2c0.1,0,0.2-0.1,0.2-0.1
	c0-0.2,2.4-2.7,2.5-2.7c0.1,0,0.6-0.5,1.2-1.1c0.6-0.6,1.5-1.3,1.8-1.6c0.4-0.3,0.7-0.5,0.7-0.6s0.1-0.1,0.2-0.1
	c0.1,0,0.3-0.1,0.3-0.3c0.1-0.2,0.2-0.3,0.4-0.3c0.1,0,0.4-0.1,0.5-0.3c0.1-0.2,0.5-0.4,0.9-0.6c0.3-0.2,0.7-0.4,0.8-0.6
	c0.1-0.2,0.3-0.3,0.5-0.3c0.1,0,0.2-0.1,0.2-0.2c0-0.1,0.1-0.2,0.2-0.2c0.1,0,0.4-0.2,0.6-0.3c0.2-0.2,0.4-0.3,0.5-0.3
	c0.1,0,0.3-0.2,0.6-0.3c0.3-0.2,0.5-0.3,0.5-0.2c0,0.1,0.1,0,0.3-0.2c0.2-0.2,0.4-0.4,0.6-0.4c0.1,0,0.3-0.1,0.3-0.2
	c0-0.1,0.1-0.2,0.2-0.2c0.1,0,0.4-0.1,0.6-0.3c0.2-0.2,0.5-0.3,0.7-0.3c0.1,0,0.4-0.2,0.7-0.3c0.2-0.2,0.5-0.3,0.7-0.3
	c0.2,0,0.3-0.1,0.3-0.2s0.1-0.2,0.3-0.2c0.2,0,0.3-0.1,0.3-0.2s0.1-0.1,0.1-0.1c0.1,0,0.3,0,0.5-0.1c0.2-0.1,0.6-0.2,0.8-0.2
	c0.2,0,0.6-0.2,1-0.3c0.6-0.3,1-0.4,2.9-0.5c1.3-0.1,1.3-0.1,0.1-1.1C49.8,25.8,48.5,25.7,48,26 M56.3,30.2c0.1,0.2,0.1,0.5,0.1,0.7
	s0.1,0.3,0.1,0.3s0.2,0.1,0.2,0.3c0,0.2,0.1,0.5,0.2,0.8c0.1,0.3,0.2,0.8,0.2,1.1c0,0.4,0.1,0.7,0.2,0.7c0.1,0,0.1,0.4,0.1,0.9
	c0,0.5,0,1,0.1,1.3c0.1,0.3,0.2,1.6,0.2,3.3c0,1.6,0.1,2.9,0.2,2.9c0.1,0.1,0.1,0.2,0,0.3c-0.1,0.1-0.2,1.3-0.2,2.6
	c0,1.3-0.1,2.7-0.2,3.1c-0.1,0.4-0.2,1.1-0.1,1.5c0,0.4-0.1,0.9-0.2,1.1c-0.1,0.2-0.2,0.7-0.1,1.1c0.1,0.5,0,0.7-0.1,0.8
	c-0.1,0-0.2,0.4-0.2,0.9c0,0.6-0.1,0.8-0.2,0.8c-0.2,0-0.2,0.1-0.1,0.7c0.1,0.5,0,0.8-0.1,0.8c-0.1,0-0.2,0.3-0.2,0.7
	c0,0.4-0.1,0.7-0.2,0.7s-0.2,0.2-0.2,0.5c0,0.3-0.1,0.5-0.2,0.5c-0.1,0-0.2,0.3-0.2,0.7c0,0.4-0.1,0.7-0.2,0.7
	c-0.1,0-0.2,0.2-0.2,0.4c0,0.2-0.1,0.5-0.2,0.5c-0.1,0.1-0.2,0.3-0.2,0.5c0,0.2-0.1,0.5-0.2,0.7c-0.1,0.2-0.2,0.4-0.2,0.5
	c0,0.1-0.1,0.4-0.2,0.7C54,63.5,54,63.9,54,64c0,0.2,0,0.3-0.1,0.3c-0.1,0-0.2,0.1-0.2,0.2c0,0.1-0.1,0.3-0.2,0.4
	c-0.1,0.1-0.2,0.3-0.1,0.4c0.1,0.1,0,0.2-0.1,0.2c-0.1,0-0.3,0.3-0.4,0.6c-0.1,0.3-0.3,0.6-0.3,0.6c-0.1,0-0.2,0.2-0.3,0.5
	c-0.1,0.3-0.3,0.5-0.4,0.5c-0.1,0-0.1,0.2-0.1,0.3c0,0.2-0.1,0.3-0.2,0.3c-0.1,0-0.1,0-0.1,0.1c0.1,0.1,0.7-0.2,1.4-0.5
	c0.7-0.3,1.4-0.7,1.6-0.7c0.2-0.1,0.5-0.2,0.7-0.3c1-0.4,3.2-0.9,4.2-0.9c1,0,1.2-0.7,1.4-5.1c0-1,0.1-2.3,0.1-2.9
	c0-0.6,0-1.2-0.1-1.3c-0.1-0.1-0.1-0.2,0-0.3c0.1-0.1,0.1-0.2,0.1-0.4c-0.1-0.2,0-0.3,0.1-0.3c0.1,0,0.2-0.1,0-0.2
	c-0.1-0.1-0.1-0.5-0.1-0.9c0.1-0.9,0.1-0.5-0.1-4.4c-0.1-1.9-0.2-3.5-0.2-3.6c-0.1-0.1-0.1-0.9-0.1-1.8c0-0.9-0.1-1.6-0.2-1.5
	c-0.1,0.1-0.1-0.5-0.1-1.2c0-0.7-0.1-1.4-0.2-1.5c-0.1-0.1-0.2-0.7-0.2-1.4c0-0.7-0.1-1.2-0.2-1.1c-0.1,0.1-0.2-1.5-0.2-2
	c0-0.1-0.1-0.1-0.1-0.1c-0.1,0-0.2-0.4-0.2-0.9s-0.1-0.9-0.1-0.9c-0.1,0-0.1-0.2-0.1-0.5c0-0.3,0-0.7-0.1-0.9
	c-0.1-0.2-0.2-0.5-0.2-0.7c0-0.2-0.1-0.5-0.2-0.6c-0.1-0.1-0.1-0.3-0.1-0.4c0.2-0.4-0.3-1-0.8-1c-0.3,0-0.5-0.1-0.6-0.2
	C56.7,29.6,56.1,29.8,56.3,30.2 M63.8,30.3c-0.1,0.1-0.8,0.2-1.5,0.2l-1.3,0L60.9,31c-0.1,0.7,0,7.7,0.1,7.8c0.1,0,0.1,0.9,0.1,1.8
	c0,0.9,0.1,1.7,0.2,1.8c0.1,0.1,0.1,0.2-0.1,0.2c-0.1,0.1-0.1,0.1,0,0.1c0.1,0,0.2,0.5,0.2,1.3c0,0.7,0.1,1.5,0.2,1.8
	c0.1,0.2,0.2,0.8,0.2,1.3s0.1,0.9,0.2,1s0.2,0.5,0.2,1s0.1,0.9,0.2,0.9c0.1,0,0.1,0.3,0.1,0.8c0,0.4,0,0.9,0.1,1.1
	c0.1,0.2,0.1,0.3-0.1,0.3c-0.2,0-0.2,0,0,0.2c0.1,0.1,0.2,0.3,0.3,0.5c0,0.2,0.1,0.7,0.2,1.1C63,54.5,63,55,63,55.1
	c0,0.1,0,0.3,0.1,0.4c0.1,0.1,0.2,0.5,0.2,0.8c0,0.3,0.1,0.8,0.2,1.1c0.1,0.3,0.1,0.6,0.1,0.7c0,0.1,0,0.2,0.1,0.3
	c0.1,0.1,0.2,0.4,0.2,0.8c0,0.4,0.1,0.7,0.2,0.7c0.1,0.1,0.2,0.4,0.2,0.7c0,0.3,0.1,0.6,0.2,0.7c0.1,0.1,0.2,0.3,0.2,0.6
	c0,0.3,0.1,0.5,0.2,0.5c0.1,0,0.2,0.2,0.2,0.4s0.1,0.5,0.2,0.5s0.1,0.3,0.1,0.5c0,0.2,0,0.4,0.1,0.4c0.1,0,0.2,0.2,0.2,0.3
	c0,0.2,0.1,0.6,0.2,0.9c0.4,0.8,0.5,1.2,0.5,1.3c0,0.1,0.1,0.1,0.3,0.1c0.2,0,0.4,0.1,0.4,0.2c0.1,0.1,0.2,0.2,0.4,0.2
	c0.2,0,0.6,0.2,0.9,0.3c0.3,0.2,0.7,0.3,0.8,0.3c0.1,0,0.2,0.1,0.2,0.2c0,0.1,0.1,0.2,0.3,0.2c0.2,0,0.4,0.1,0.4,0.2
	c0,0.1,0.1,0.2,0.2,0.1c0.1-0.1,0-0.2-0.1-0.4c-0.1-0.1-0.3-0.4-0.4-0.6c-0.1-0.2-0.2-0.3-0.3-0.3c-0.1,0-0.2-0.2-0.2-0.3
	c0-0.2-0.1-0.3-0.2-0.3c-0.1,0-0.2-0.1-0.2-0.2c0-0.1-0.1-0.2-0.1-0.2c-0.1,0-0.2-0.3-0.7-1.5c-0.1-0.3-0.3-0.5-0.4-0.5
	s-0.1-0.1-0.1-0.2c0.1-0.1-0.1-0.5-0.2-0.9c-0.2-0.4-0.3-0.8-0.3-1s-0.1-0.3-0.2-0.3c-0.1,0-0.2-0.2-0.2-0.5c0-0.3-0.1-0.5-0.2-0.6
	c-0.1-0.1-0.2-0.3-0.2-0.5c0-0.2-0.1-0.4-0.2-0.5c-0.1-0.1-0.2-0.3-0.2-0.5c0-0.2-0.1-0.4-0.2-0.4c-0.1,0-0.2-0.3-0.2-0.7
	c0-0.4-0.1-0.7-0.2-0.8c-0.1-0.1-0.2-0.4-0.2-0.7s-0.1-0.6-0.2-0.7c-0.1-0.1-0.2-0.4-0.2-0.8c0-0.4-0.1-0.7-0.1-0.7
	c-0.1,0-0.1-0.3-0.1-0.7c0-0.5-0.1-0.8-0.2-0.8c-0.1-0.1-0.2-0.3-0.1-0.8c0-0.4,0-0.8-0.1-1c-0.1-0.2-0.2-0.8-0.2-1.4
	c0-0.6-0.1-1.2-0.2-1.3c-0.1-0.1-0.2-1.4-0.2-2.9c-0.2-4.7-0.2-5.4,0-5.4c0.1,0,0.1-0.1-0.1-0.1c-0.1-0.1-0.2-0.2-0.1-0.2
	c0.1-0.1,0.2-0.9,0.2-2c0-1,0.1-1.9,0.2-2c0.1-0.1,0.1-0.5,0.1-0.9c0-0.4,0.1-1,0.2-1.2c0.1-0.3,0.1-0.6,0.1-0.8
	c-0.1-0.2,0-0.3,0-0.4c0.1,0,0.2-0.3,0.2-0.6c0-0.3,0.1-0.6,0.2-0.7C65.6,30.5,64.6,29.8,63.8,30.3 M22.3,50.4
	c-0.3,0.8-0.4,1.5-0.1,1.7c0.1,0.1,0.2,0.2,0.2,0.4c0,0.2,0.1,0.4,0.3,0.5c0.2,0.1,0.5,0.5,0.7,0.8c0.2,0.3,0.6,0.7,0.7,0.9
	c0.8,0.9,1.2,1.3,1.1,1.3c0,0,0.1,0.2,0.4,0.4c0.2,0.2,0.4,0.5,0.4,0.6c0,0.1,0.1,0.2,0.2,0.2c0.2,0,1.5,1.2,1.5,1.5
	c0,0.1,0.1,0.2,0.3,0.1c0.2-0.1,0.2,0,0.2,0c-0.1,0.1,0.4,0.5,1,1c0.6,0.5,1.2,1,1.3,1.2c0.1,0.2,0.5,0.5,0.7,0.6
	c0.3,0.1,0.8,0.5,1.1,0.9c0.6,0.6,1.3,1.1,2.7,2.1c0.3,0.2,0.6,0.5,0.8,0.7c0.2,0.2,0.4,0.4,0.5,0.4c0.1,0,0.3,0.2,0.6,0.5
	c0.3,0.3,0.6,0.5,0.7,0.5c0.1,0,0.8,0.5,1.4,1.1c0.1,0.1,0.3,0.2,0.3,0.1c0.1-0.1,0.1,0,0.1,0.1c0,0.1,0.1,0.2,0.3,0.3
	c0.2,0.1,0.5,0.3,0.8,0.5c0.3,0.2,0.6,0.4,0.7,0.4c0.1,0,0.2,0.1,0.2,0.1c0,0.1,1.2,0.9,2.4,1.5c0.3,0.1,0.5,0.3,0.5,0.4
	c0,0.1,0.1,0.1,0.2,0.1c0.1,0,0.2,0.1,0.2,0.2c0,0.1,0.1,0.2,0.3,0.2c0.2,0,0.4,0.1,0.5,0.3c0.1,0.2,0.3,0.3,0.5,0.3
	s0.3,0.1,0.3,0.2c0,0.4,0.4,0.1,1.5-1c0.6-0.6,1.4-1.3,1.8-1.6c0.7-0.6,0.7-0.7,0.1-0.7c-0.3,0-0.6-0.1-0.7-0.2
	c-0.1-0.1-0.2-0.1-0.2-0.1c0,0.1-0.2,0-0.5-0.1c-0.3-0.1-0.5-0.2-0.5-0.2s-0.2,0-0.4-0.2c-0.2-0.2-0.5-0.2-0.6-0.2
	c-0.1,0.1-0.2,0-0.3-0.1c-0.1-0.1-0.3-0.2-0.5-0.2s-0.4-0.1-0.4-0.2c0-0.1-0.1-0.2-0.3-0.2c-0.1,0-0.4-0.1-0.5-0.1
	c-0.2-0.1-0.5-0.2-0.8-0.4c-0.3-0.1-0.5-0.3-0.6-0.3c-0.2-0.2-0.9-0.5-1-0.4c-0.1,0.1-0.2,0-0.3-0.2c-0.1-0.1-0.2-0.2-0.3-0.2
	c-0.1,0-0.2,0-0.2-0.1s-0.2-0.2-0.5-0.3c-0.7-0.3-1.3-0.6-1.6-0.9c-0.2-0.2-0.4-0.3-0.5-0.3c-0.1,0-0.3-0.2-0.5-0.4
	c-0.2-0.2-0.3-0.3-0.3-0.2s-0.2,0-0.4-0.1c-0.2-0.1-0.4-0.2-0.5-0.2c-0.1,0-0.2-0.1-0.2-0.2c-0.1-0.2-0.6-0.5-1.2-0.7
	c-0.2-0.1-0.3-0.2-0.3-0.3c0.1-0.1,0-0.1-0.2-0.1c-0.1,0.1-0.3,0-0.3-0.1c0-0.1-0.3-0.3-0.6-0.4c-0.3-0.2-0.6-0.4-0.7-0.5
	c0-0.1-0.2-0.2-0.3-0.2c-0.1,0-0.3-0.1-0.4-0.3c-0.1-0.2-0.3-0.3-0.4-0.2c-0.1,0-0.5-0.2-0.9-0.6c-0.4-0.4-0.8-0.7-0.8-0.7
	c0,0-0.5-0.3-1-0.8s-1.1-1-1.3-1.1c-0.2-0.1-0.3-0.3-0.3-0.4c0-0.1,0-0.1-0.2-0.1c-0.1,0-0.3-0.1-0.3-0.3c0-0.2,0-0.2-0.1-0.1
	c-0.1,0.2-1.1-0.7-2.2-2.1c-0.3-0.4-0.7-0.8-0.8-1c-0.1-0.2-0.4-0.5-0.5-0.7c-0.1-0.2-0.3-0.5-0.4-0.6c-0.1-0.1-0.3-0.4-0.4-0.7
	c-0.1-0.3-0.4-0.6-0.5-0.8c-0.2-0.1-0.3-0.4-0.3-0.5C22.8,49.6,22.5,49.7,22.3,50.4 M19.1,54.9c-0.5,0.5-1.1,1-1.3,1
	c-0.2,0.1-0.3,0.2-0.3,0.3c0,0.1-0.1,0.2-0.3,0.2c-0.2,0-0.3,0.1-0.3,0.2s-0.1,0.2-0.2,0.2c-0.1,0-0.2,0.1-0.2,0.1
	c0,0.2,1.3,0.9,1.6,0.9c0.1,0,0.2,0.1,0.3,0.1c0.1,0.2,1.1,0.7,1.4,0.7c0.1,0,0.3,0.1,0.3,0.2c0,0.1,0.1,0.2,0.2,0.2
	s0.5,0.2,0.9,0.5c0.4,0.3,0.8,0.5,0.8,0.5c0.1,0,0.3,0.1,0.5,0.3c0.2,0.2,0.5,0.3,0.6,0.3c0.1,0,0.2,0.1,0.2,0.2
	c0,0.1,0.1,0.2,0.2,0.2s0.2,0.1,0.2,0.2s0,0.1,0.1,0.1c0.1-0.1,0.3,0.1,0.6,0.4c0.3,0.3,0.6,0.5,0.7,0.5c0.1,0,0.2,0.1,0.2,0.1
	c0,0.1,0.3,0.3,0.7,0.5c0.4,0.2,0.7,0.5,0.7,0.5s0.1,0.1,0.2,0.1c0.1,0,0.4,0.2,0.7,0.5c0.3,0.3,0.6,0.5,0.7,0.5
	c0.1,0,0.2,0.1,0.3,0.3c0.1,0.2,0.2,0.3,0.3,0.2s0.4,0.1,0.6,0.4c0.2,0.3,0.5,0.5,0.6,0.5c0.1,0,0.2,0.1,0.2,0.2
	c0,0.1,0.2,0.2,0.4,0.3c0.2,0.1,0.4,0.2,0.3,0.3c-0.1,0.1,0,0.2,0,0.2c0.1,0,0.4,0.3,0.8,0.6c0.4,0.3,0.6,0.5,0.4,0.5
	c-0.2-0.1-0.2-0.1-0.1,0c0.1,0.1,0.3,0.1,0.4,0.1c0.2-0.1,0.4,0,0.4,0.3c0.1,0.2,0.2,0.3,0.3,0.3c0.1,0,0.3,0.1,0.4,0.2
	c0.1,0.1,0.2,0.2,0.1,0.2c-0.1,0,0.2,0.3,0.6,0.7c1.5,1.4,2.6,2.5,2.5,2.5c0,0,0.2,0.2,0.5,0.5c0.3,0.3,0.6,0.5,0.7,0.5
	c0.1,0,0.1,0.1,0.1,0.2c-0.1,0.1,0,0.2,0.1,0.2c0.2,0,1.2,1,1,1c-0.1,0,0,0.1,0.2,0.2c0.2,0.1,0.3,0.3,0.3,0.4
	c0,0.1,0.1,0.2,0.1,0.2c0.2,0,0.9,0.6,0.7,0.7c-0.1,0.1,0,0.1,0.1,0.1c0.1,0,0.3,0.2,0.4,0.5c0.1,0.3,0.3,0.5,0.4,0.5
	c0.1,0,0.2,0.1,0.2,0.3c0,0.1,0.2,0.4,0.4,0.6c0.2,0.2,0.5,0.6,0.6,0.8c0.3,0.5,0.5,0.6,0.5,0.2c0-0.1,0.1-0.2,0.2-0.2
	c0.1,0,0.2-0.2,0.2-0.4c0-0.2,0.1-0.5,0.2-0.6c0.2-0.2-0.2-1.2-0.5-1.2c-0.1,0-0.2-0.2-0.3-0.4c-0.2-0.5-1-1.5-1.8-2.3
	c-0.3-0.3-0.5-0.6-0.5-0.7c0-0.1-0.1-0.2-0.2-0.2c-0.1,0-0.3-0.3-0.4-0.6c-0.2-0.3-0.3-0.5-0.4-0.5c-0.1,0-0.3-0.2-0.5-0.5
	s-0.5-0.6-0.7-0.7c-0.1,0-0.4-0.3-0.5-0.5c-0.1-0.2-0.8-1-1.5-1.7c-1.7-1.8-2.8-3-3.1-3.4c-0.1-0.2-0.4-0.4-0.5-0.4
	c-0.1,0-0.3-0.1-0.4-0.3c-0.1-0.3-0.5-0.8-0.5-0.7c0,0-0.6-0.6-1.4-1.3c-0.8-0.8-1.4-1.4-1.4-1.3c-0.1,0.1-0.5-0.3-0.4-0.5
	c0-0.1-0.1-0.2-0.4-0.3c-0.2-0.1-0.4-0.2-0.3-0.3c0.1-0.1,0-0.2-0.1-0.2c-0.2,0-2.1-1.8-2.1-2c0-0.1,0-0.1-0.1-0.1
	c-0.2,0.1-0.9-0.5-1.8-1.4c-0.3-0.3-0.6-0.5-0.6-0.4s-0.1,0-0.2-0.1c-0.1-0.2-0.2-0.3-0.3-0.3c-0.1,0-0.4-0.2-0.6-0.5
	s-0.6-0.5-0.7-0.5c-0.1,0-0.3-0.2-0.4-0.3C20.7,53.8,20.2,53.9,19.1,54.9"/>
<path id="path2" class="st1" d="M57.4,0.1c-0.4,0-0.7,0.1-0.7,0.2s-0.2,0.2-0.5,0.2c-0.3,0-0.5,0.1-0.6,0.2
	c-0.1,0.1-0.2,0.2-0.4,0.2c-0.2,0-0.3,0.1-0.3,0.2s-0.2,0.2-0.3,0.2s-0.3,0.1-0.3,0.1c0,0.1-0.2,0.2-0.5,0.3C53.3,1.6,53,1.8,52.8,2
	c-0.1,0.2-0.4,0.3-0.5,0.3c-0.1,0-0.4,0.1-0.5,0.3C51.7,2.8,51.5,3,51.4,3c-0.2,0-1.6,1.3-1.6,1.5c0,0.1-0.2,0.2-0.3,0.2
	c-0.2,0.1-0.3,0.2-0.3,0.3c0,0.1-0.1,0.2-0.2,0.2c-0.1,0-0.2,0.1-0.2,0.2c0,0.1-0.1,0.3-0.3,0.5c-0.2,0.1-0.3,0.3-0.3,0.5
	c0,0.1-0.1,0.4-0.3,0.5c-0.3,0.2-0.6,0.7-0.6,1c0,0.1-0.1,0.2-0.1,0.2C47.1,8.3,47,8.5,47,8.7C47,8.9,46.9,9,46.8,9
	c-0.1,0-0.2,0.2-0.2,0.5c0,0.3-0.1,0.5-0.2,0.5c-0.1,0-0.2,0.2-0.2,0.4c0,0.2-0.1,0.5-0.2,0.5C46.1,11,46,11.4,46,11.8
	c0,0.4-0.1,0.7-0.2,0.7c-0.3,0-0.2,4.9,0,5c0.1,0,0.3,0.4,0.4,0.9c0.4,1.4,0.7,2.3,1.1,3.2c0.5,1,0.5,1.2,0.2,1.3
	c-0.1,0.1-0.1,0.2,0.2,0.4c0.2,0.2,0.4,0.4,0.4,0.6c0,0.1,0.1,0.3,0.3,0.5c0.2,0.1,0.3,0.3,0.3,0.4c0,0.3,0.7,0.9,1.1,1
	c0.5,0.1,1.5,1,1.5,1.3c0,0.3,1,1.2,1.3,1.2c0.1,0,0.2,0.1,0.2,0.2c0,0.1,0.3,0.2,0.6,0.3s0.6,0.2,0.6,0.3c0,0.1,0.2,0.1,0.3,0.1
	s0.3,0.1,0.3,0.2c0,0.1,0.1,0.2,0.3,0.2c0.2,0,0.3,0.1,0.3,0.1s0.2,0.2,0.3,0.2c0.2,0,0.3,0,0.3-0.1c0-0.4,1.7,0,1.9,0.4
	c0.2,0.4,3.3,0.3,5.9-0.3c0.5-0.1,1.2-0.2,1.7-0.2c0.5,0,0.9,0,0.9-0.2c0-0.1,0.1-0.2,0.3-0.2c0.4,0,2.7-1.1,3.1-1.5
	c0.2-0.2,0.4-0.3,0.5-0.3c0.1,0,0.3-0.2,0.4-0.4c0.1-0.2,0.6-0.7,1-1.1c0.4-0.4,1-1,1.4-1.3c0.3-0.3,0.6-0.7,0.6-0.8
	c0-0.1,0.1-0.3,0.2-0.4c0.1-0.1,0.2-0.4,0.2-0.6s0.1-0.3,0.2-0.3c0.1,0,0.2-0.1,0.2-0.2c0-0.1,0.1-0.2,0.2-0.2
	c0.1,0,0.2-0.1,0.2-0.3c0-0.2,0.1-0.3,0.2-0.3c0.1,0,0.2-0.2,0.2-0.3c0-0.2,0.1-0.5,0.2-0.7c0.1-0.2,0.2-0.5,0.3-0.7
	c0.1-0.2,0.2-0.5,0.2-0.7s0.1-0.5,0.2-0.5c0.1-0.1,0.2-0.6,0.2-1.2c0-0.6,0.1-1.1,0.2-1.1c0.1,0,0.2-0.6,0.2-1.3
	c0-0.8-0.1-1.3-0.2-1.3c-0.1,0-0.2-0.5-0.2-1.1c0-0.6-0.1-1.1-0.2-1.2C76.1,11.5,76,11.3,76,11c0-0.3-0.1-0.5-0.2-0.6
	c-0.1-0.1-0.2-0.2-0.2-0.4c0-0.2-0.1-0.3-0.2-0.3c-0.1,0-0.2-0.2-0.2-0.5c0-0.3-0.1-0.5-0.2-0.5c-0.1,0-0.2-0.1-0.2-0.3
	C75,8.1,74.9,8,74.8,8c-0.1,0-0.2-0.1-0.2-0.2s-0.1-0.2-0.2-0.2c-0.1,0-0.2-0.1-0.2-0.3c0-0.2-0.2-0.5-0.4-0.8
	c-0.2-0.3-0.4-0.5-0.4-0.6c0-0.2-0.8-0.9-0.9-0.8c-0.1,0.1-0.1,0-0.1-0.2c0-0.2-0.1-0.3-0.2-0.3c-0.2,0-1.3-1.1-1.3-1.3
	c0-0.1-0.2-0.2-0.5-0.4c-0.3-0.1-0.6-0.4-0.7-0.5C69.7,2.1,69.5,2,69.3,2c-0.1,0-0.3-0.1-0.5-0.2c-0.1-0.1-0.4-0.2-0.6-0.2
	c-0.2,0-0.3-0.1-0.3-0.2c0-0.1-0.1-0.2-0.3-0.2c-0.2,0-0.4-0.1-0.4-0.2S67,0.8,66.8,0.8c-0.2,0-0.3-0.1-0.3-0.2
	c0-0.1-0.2-0.2-0.5-0.2c-0.3,0-0.5-0.1-0.6-0.2C65.4,0.1,59-0.1,57.4,0.1 M63.3,3.5c0,0.1,0.3,0.2,0.7,0.2s0.7,0.1,0.7,0.2
	C64.7,3.9,64.8,4,65,4c0.2,0,0.4,0.1,0.4,0.2c0.1,0.1,0.4,0.2,0.7,0.3c0.3,0.1,0.7,0.3,0.9,0.4c0.1,0.2,0.3,0.3,0.4,0.3
	c0.1,0,0.4,0.2,0.7,0.5c1.2,1.1,2.2,2,2.2,2.2c0,0.1,0.1,0.2,0.3,0.4C70.8,8.3,71,8.5,71,8.6c0,0.1,0.1,0.2,0.2,0.2
	c0.1,0,0.2,0.1,0.2,0.2c0,0.1,0.2,0.6,0.4,1c0.2,0.5,0.4,1,0.4,1.1s0.1,0.3,0.2,0.3c0.1,0,0.2,0.2,0.2,0.5c0,0.3,0.1,0.5,0.2,0.5
	c0.1,0,0.2,0.4,0.2,0.9c0,0.5,0.1,0.9,0.2,0.9c0.1,0,0.2,0.4,0.2,0.8c0,0.5-0.1,0.8-0.2,0.8c-0.1,0-0.2,0.4-0.2,0.9
	c0,0.5-0.1,0.9-0.2,0.9c-0.1,0-0.2,0.2-0.2,0.5c0,0.3-0.1,0.5-0.2,0.6c-0.1,0.1-0.2,0.3-0.2,0.5c0,0.2-0.1,0.4-0.1,0.4
	c-0.1,0-0.3,0.5-0.6,1c-0.2,0.5-0.6,1.1-0.7,1.3c-0.6,0.7-2.2,2.3-2.3,2.3c-0.1,0-0.2,0.1-0.4,0.3c-0.1,0.2-0.3,0.3-0.4,0.3
	c-0.1,0-0.3,0.1-0.5,0.3c-0.4,0.3-1.2,0.7-1.9,0.8c-0.3,0-0.5,0.1-0.5,0.2s-0.2,0.1-0.5,0.1c-0.3,0-0.5,0.1-0.6,0.2
	c-0.1,0.1-1.1,0.2-2.5,0.2c-1.4,0-2.4-0.1-2.5-0.2c-0.1-0.1-0.3-0.2-0.5-0.2s-0.5-0.1-0.7-0.2c-0.2-0.1-0.6-0.3-0.9-0.4
	c-1.4-0.6-1.7-0.7-1.7-0.8c0-0.1-0.1-0.1-0.3-0.1c-0.3,0-3.1-2.7-3.4-3.4c-0.1-0.3-0.3-0.5-0.4-0.5s-0.1-0.1-0.1-0.3
	c0-0.2-0.1-0.3-0.2-0.3c-0.1,0-0.2-0.1-0.2-0.3c0-0.2-0.1-0.3-0.2-0.3c-0.1,0-0.2-0.3-0.3-0.7c-0.1-0.4-0.2-0.7-0.3-0.8
	c-0.1,0-0.1-0.3-0.1-0.7c0-0.3-0.1-0.6-0.2-0.7c-0.1-0.1-0.2-0.9-0.2-2.1c0-1.1,0.1-2,0.2-2.1c0.1-0.1,0.2-0.4,0.2-0.7
	c0-0.3,0.1-0.6,0.1-0.6c0.1,0,0.2-0.3,0.2-0.7c0.1-0.4,0.2-0.7,0.3-0.8c0.1,0,0.2-0.2,0.2-0.4c0-0.2,0.1-0.3,0.2-0.3
	c0.1,0,0.2-0.1,0.2-0.3c0-0.2,0.1-0.4,0.3-0.5c0.2-0.1,0.3-0.3,0.3-0.4c0-0.3,2.5-2.8,3-3.1C54.6,5.2,54.8,5,54.8,5
	c0-0.1,0.1-0.1,0.3-0.1c0.2,0,0.3-0.1,0.3-0.2c0-0.1,0.3-0.2,0.6-0.3c0.3-0.1,0.6-0.2,0.6-0.3c0-0.1,0.2-0.1,0.4-0.1
	c0.2,0,0.5-0.1,0.5-0.2c0.1-0.1,0.3-0.2,0.6-0.2c0.3,0,0.5-0.1,0.5-0.2c0-0.1,0.9-0.2,2.3-0.2S63.3,3.4,63.3,3.5 M10.3,34.8
	c0,0.1-0.4,0.2-0.9,0.2c-1,0-2,0.2-2,0.4c0,0.1-0.2,0.1-0.5,0.1c-0.3,0-0.5,0.1-0.5,0.2c0,0.1-0.1,0.2-0.3,0.2
	c-0.2,0-0.3,0.1-0.3,0.2c0,0.1-0.1,0.2-0.2,0.2S5.2,36.3,5,36.5c-0.2,0.2-0.4,0.3-0.5,0.3s-0.4,0.3-0.8,0.7
	c-0.4,0.4-0.7,0.6-0.7,0.6s-0.3,0.2-0.6,0.5S2,39.3,2,39.4s-0.1,0.3-0.2,0.4c-0.1,0.1-0.2,0.4-0.2,0.6s-0.1,0.3-0.2,0.3
	c-0.1,0-0.2,0.1-0.2,0.2c0,0.1-0.1,0.2-0.2,0.2s-0.2,0.1-0.2,0.3c0,0.2-0.1,0.3-0.2,0.3c-0.1,0-0.2,0.2-0.2,0.5
	c0,0.3-0.1,0.5-0.2,0.6C0,43,0,49.7,0.3,49.8c0.1,0,0.2,0.2,0.2,0.5c0,0.2,0.1,0.4,0.2,0.4c0.1,0,0.2,0.2,0.2,0.4s0.1,0.5,0.3,0.7
	c0.2,0.2,0.3,0.4,0.3,0.5c0,0.5,2.9,3.7,3.4,3.7c0.1,0,0.2,0.1,0.2,0.2c0,0.1,0.1,0.2,0.3,0.2c0.2,0,0.3,0.1,0.3,0.2
	s0.1,0.2,0.3,0.2c0.2,0,0.3,0.1,0.3,0.2c0,0.1,0.1,0.2,0.3,0.2c0.2,0,0.3,0.1,0.3,0.2c0,0.1,0.2,0.2,0.4,0.2c0.2,0,0.5,0.1,0.5,0.2
	c0.1,0.1,0.4,0.2,0.8,0.2c0.4,0,0.7,0.1,0.7,0.2c0,0.1,0.7,0.2,1.7,0.2c1,0,1.8-0.1,1.8-0.2c0.1-0.1,0.4-0.2,0.8-0.2
	s0.7-0.1,0.7-0.2s0.2-0.2,0.5-0.2c0.3,0,0.6-0.1,0.7-0.3c0.1-0.2,0.6-0.5,1-0.8c0.4-0.2,1.3-0.9,2-1.4c0.7-0.6,1.3-1,1.5-0.9
	c0.2,0,0.3,0,0.3-0.3c0-0.2,0.2-0.4,0.4-0.6c0.2-0.1,0.3-0.3,0.3-0.4c0-0.1,0.1-0.3,0.2-0.4c0.1-0.1,0.2-0.4,0.1-0.6
	c-0.1-0.5,0.4-2.2,0.7-2.2c0.3,0,0.4-0.4,0.4-1.2c0-0.4,0.1-0.8,0.2-0.9c0.1-0.1,0.1-0.2,0-0.1c-0.3,0.2-0.4-0.3-0.4-1.3
	c0-0.9-0.1-1.4-0.5-2.9c-0.1-0.5-0.1-0.7,0-1c0.2-0.3,0.2-0.4,0-0.4c-0.1,0-0.2-0.2-0.2-0.3c0-0.1-0.1-0.2-0.2-0.2
	c-0.1,0-0.2-0.1-0.2-0.3c0-0.2-0.1-0.3-0.1-0.3c-0.1,0-0.2-0.2-0.4-0.5c-0.3-0.6-1.5-1.9-1.8-1.9C19,38,18,37.3,18,37.1
	c0-0.3-0.6-0.9-0.9-0.9c-0.1,0-0.3-0.1-0.3-0.1c-0.1-0.2-1.6-0.9-2-0.9c-0.2,0-0.5-0.1-0.5-0.2c-0.1-0.1-0.5-0.1-0.9-0.1
	c-0.6,0.1-0.8,0-0.8-0.1c0-0.1-0.4-0.2-1.1-0.2C10.8,34.7,10.3,34.7,10.3,34.8 M12.8,37.7c0.2,0.1,0.6,0.2,1.1,0.3s0.8,0.2,0.8,0.3
	c0,0.1,0.1,0.2,0.3,0.2s0.3,0.1,0.3,0.2c0,0.1,0.1,0.2,0.3,0.2c0.2,0,0.3,0.1,0.3,0.2c0,0.1,0.1,0.2,0.3,0.2c0.1,0,0.4,0.1,0.5,0.2
	c0.1,0.1,0.2,0.2,0.1,0.2c-0.1,0,1.1,1.2,1.6,1.5c0.2,0.1,0.4,0.4,0.4,0.5c0,0.2,0.1,0.3,0.2,0.3c0.1,0,0.2,0.1,0.2,0.3
	c0,0.2,0.1,0.3,0.1,0.4c0.2,0.1,0.7,1.7,0.7,2.3c0,0.3,0.1,0.6,0.2,0.6c0.1,0.1,0.2,0.5,0.2,0.9c0,0.4-0.1,0.9-0.2,0.9
	c-0.1,0.1-0.2,0.3-0.2,0.6c0,0.7-0.5,2.2-0.9,2.6c-0.1,0.2-0.3,0.4-0.3,0.5c0,0.3-2.6,2.8-2.9,2.8c-0.1,0-0.3,0.1-0.3,0.2
	c0,0.1-0.1,0.2-0.3,0.2c-0.2,0-0.3,0.1-0.3,0.2c0,0.1-0.1,0.2-0.3,0.2c-0.2,0-0.4,0.1-0.4,0.2c-0.1,0.1-0.3,0.2-0.6,0.2
	c-0.3,0-0.5,0.1-0.5,0.2c0,0.1-0.7,0.2-1.7,0.2c-0.9,0-1.7-0.1-1.8-0.2c-0.1-0.1-0.3-0.2-0.6-0.2c-0.3,0-0.5-0.1-0.5-0.2
	c0-0.1-0.1-0.2-0.3-0.2c-0.2,0-0.7-0.2-1.1-0.5c-0.4-0.3-0.8-0.5-0.9-0.5c-0.3,0-2.1-1.8-2.1-2.1c0-0.1-0.1-0.4-0.3-0.5
	c-0.4-0.5-0.7-1-0.7-1.4c0-0.2-0.1-0.3-0.2-0.3c-0.1,0-0.2-0.2-0.2-0.5c0-0.3-0.1-0.5-0.2-0.5c-0.1,0-0.2-0.7-0.2-1.9
	c0-1.2,0.1-1.9,0.2-1.9C2.9,44.3,3,44.2,3,44c0-0.2,0.1-0.5,0.2-0.7c0.7-1.3,0.9-1.7,1.1-2c0.1-0.1,0.2-0.3,0.2-0.4
	c0-0.2,1.5-1.7,1.7-1.7c0.1,0,0.3-0.1,0.5-0.3c0.1-0.2,0.4-0.3,0.5-0.3c0.2,0,0.3-0.1,0.3-0.2c0-0.1,0.1-0.2,0.2-0.2
	c0.1,0,0.2-0.1,0.2-0.1c0-0.1,0.6-0.2,1.9-0.4c0.1,0,0.2-0.1,0.2-0.1C10.3,37.4,12.4,37.5,12.8,37.7 M56,56.9c0,0.2,0,0.4,0.1,0.4
	s0.1-0.2,0.1-0.4c0-0.2,0-0.4-0.1-0.4S56,56.7,56,56.9 M24.3,57c0.2,0.2,0.4,0.3,0.5,0.2c0.1-0.1-0.5-0.6-0.7-0.6
	C24,56.7,24.1,56.8,24.3,57 M60.2,66.1c0,0.3-0.3,0.4-1.7,0.5c-0.5,0.1-1.4,0.2-1.8,0.3c-1.4,0.4-1.8,0.5-3.6,1.4
	c-1.6,0.8-1.9,0.8-1.7,0.4c0.1-0.3,0.1-0.3-0.1,0c-0.1,0.1-0.4,0.3-0.5,0.4c-0.2,0.1-0.3,0.3-0.4,0.5c-0.1,0.7-3.1,3.3-3.7,3.2
	c-0.3,0-0.5,0-0.4,0c0.4,0.1,0.2,0.6-0.3,1.1c-0.3,0.3-0.5,0.5-0.5,0.7c0,0.1-0.1,0.2-0.2,0.2c-0.1,0-0.2,0.2-0.2,0.3
	c0,0.2-0.1,0.3-0.1,0.3c-0.1,0-0.7,1.2-0.8,1.6c0,0.1-0.1,0.3-0.2,0.4c-0.1,0.1-0.1,0.2,0,0.5c0.3,0.5-0.1,1.7-0.7,2
	C42.9,79.9,42.9,80,43,80c0.2,0.1,0.2,0.1,0,0.1c-0.1,0-0.2,0.3-0.2,0.8c0,0.4-0.1,0.7-0.2,0.7c-0.1,0-0.2,1.1-0.2,3s0.1,3,0.2,3
	c0.1,0,0.2,0.3,0.2,0.7c0,0.4,0.1,0.8,0.2,0.8c0.1,0.1,0.2,0.4,0.2,0.7c0,0.3,0.1,0.6,0.2,0.6c0.1,0,0.2,0.2,0.2,0.4
	c0,0.2,0.1,0.4,0.2,0.4c0.1,0,0.2,0.2,0.2,0.4c0,0.2,0.1,0.4,0.2,0.4c0.1,0,0.1,0.1,0.1,0.2c-0.1,0.1,0,0.2,0.1,0.2
	c0.1,0,0.2,0.2,0.2,0.3c0,0.2,0.1,0.3,0.2,0.3c0.1,0,0.2,0.1,0.2,0.3c0,0.2,0.1,0.3,0.2,0.3c0.1,0,0.2,0.1,0.2,0.2
	c0,0.1,0.2,0.4,0.3,0.6c0.2,0.2,0.3,0.4,0.3,0.5c0,0.1,0.2,0.3,0.5,0.6c0.3,0.3,0.5,0.5,0.5,0.6c0,0.4,2.5,2.9,2.9,2.9
	c0.1,0,0.3,0.1,0.4,0.3c0.1,0.2,0.3,0.3,0.4,0.3c0.1,0,0.3,0.2,0.4,0.3c0.1,0.2,0.4,0.3,0.5,0.3c0.2,0,0.3,0.1,0.3,0.2
	c0,0.1,0.1,0.2,0.3,0.2s0.3,0.1,0.3,0.2s0.3,0.2,0.6,0.3c0.3,0.1,0.6,0.2,0.6,0.2c0,0.1,0.2,0.2,0.3,0.2c0.2,0,0.3,0.1,0.3,0.2
	s0.2,0.2,0.5,0.2c0.3,0,0.5,0.1,0.5,0.2c0,0.1,0.2,0.2,0.5,0.2c0.3,0,0.6,0.1,0.7,0.2c0.2,0.1,1.4,0.2,4.8,0.2
	c3.5,0,4.6-0.1,4.7-0.2c0-0.1,0.3-0.2,0.7-0.2c0.4,0,0.7-0.1,0.7-0.2c0-0.1,0.2-0.2,0.4-0.2c0.2,0,0.4-0.1,0.4-0.2s0.2-0.2,0.3-0.2
	c0.2,0,0.3-0.1,0.3-0.2s0.3-0.2,0.7-0.3c0.4-0.1,0.7-0.2,0.7-0.2s0.2-0.2,0.5-0.3c0.3-0.1,0.6-0.3,0.8-0.5c0.2-0.2,0.4-0.3,0.5-0.3
	c0.1,0,0.5-0.3,0.8-0.7c0.4-0.4,0.7-0.7,0.8-0.7c0.2,0,1.1-0.9,1.5-1.5c0.2-0.3,0.6-0.8,0.9-1c0.3-0.2,0.5-0.5,0.5-0.5
	s0.1-0.3,0.3-0.5c0.2-0.2,0.3-0.5,0.3-0.6s0.1-0.2,0.2-0.2c0.1,0,0.2-0.2,0.3-0.5c0.1-0.3,0.2-0.5,0.3-0.5s0.2-0.2,0.2-0.3
	c0-0.2,0.1-0.3,0.2-0.3c0.1,0,0.2-0.2,0.2-0.4c0-0.2,0.1-0.4,0.2-0.4c0.1,0,0.2-0.1,0.2-0.3c0-0.2,0.1-0.4,0.2-0.4
	c0.1-0.1,0.2-0.3,0.2-0.5c0-0.2,0.1-0.4,0.2-0.5c0.1-0.1,0.2-0.4,0.2-0.7c0-0.3,0.1-0.6,0.2-0.7c0.1-0.1,0.2-0.5,0.2-1
	s0.1-0.9,0.2-1c0.1-0.1,0.2-1,0.2-2.2c0-1.2-0.1-2.1-0.2-2.2c-0.1-0.1-0.2-0.5-0.2-1s-0.1-0.9-0.2-0.9c-0.1,0-0.2-0.3-0.2-0.7
	c0-0.4-0.1-0.7-0.2-0.7c-0.1,0-0.2-0.2-0.2-0.5s-0.1-0.5-0.2-0.5c-0.1,0-0.2-0.2-0.2-0.4c0-0.2-0.1-0.4-0.2-0.4
	c-0.1,0-0.2-0.2-0.2-0.3c0-0.2-0.1-0.3-0.2-0.3c-0.1,0-0.2-0.2-0.2-0.3c0-0.2-0.1-0.3-0.2-0.3c-0.1,0-0.2-0.1-0.2-0.3
	c0-0.3-1-2-1.5-2.4c-0.2-0.1-0.3-0.3-0.3-0.4c0-0.2-2.3-2.5-2.5-2.5c-0.1,0-0.2-0.1-0.2-0.2c0-0.1-0.1-0.2-0.2-0.2s-0.4-0.2-0.6-0.4
	c-0.2-0.2-0.6-0.5-0.7-0.5c-0.2-0.1-0.3-0.2-0.3-0.3c0-0.1-0.1-0.2-0.2-0.2c-0.1,0-0.3-0.1-0.3-0.2c-0.1-0.2-0.1-0.2-0.2,0
	c-0.1,0.3-1.1,0-2.9-1c-0.2-0.1-0.4-0.2-0.5-0.2c-0.1,0-0.4-0.2-0.6-0.5c-0.3-0.3-0.5-0.5-0.7-0.4c-0.2,0-0.5,0-0.7-0.1
	c-0.2-0.1-0.9-0.2-1.4-0.3C60.1,65.8,60.2,65.8,60.2,66.1 M33,68.8c0,0.1,0.1,0.2,0.3,0.3c0.4,0.2,0.4,0.1,0.1-0.2
	C33.2,68.6,33,68.6,33,68.8 M62.2,70.2c0.1,0.1,0.5,0.2,1.1,0.2c0.5,0,1,0.1,1,0.2c0,0.1,0.2,0.2,0.5,0.2c0.3,0,0.5,0.1,0.6,0.2
	c0.1,0.1,0.4,0.2,0.8,0.3c0.4,0.1,0.7,0.2,0.8,0.3c0.1,0.1,0.3,0.2,0.5,0.2c0.2,0,0.5,0.2,0.6,0.3c0.1,0.2,0.3,0.3,0.5,0.3
	c0.1,0,0.2,0.1,0.2,0.2c0,0.1,0.1,0.2,0.3,0.2c0.1,0,0.5,0.3,0.8,0.6c0.3,0.3,0.7,0.6,0.7,0.6c0.2,0,1.7,1.5,1.7,1.7
	c0,0.1,0.2,0.4,0.5,0.6c0.3,0.3,0.5,0.5,0.5,0.6c0,0.2,0.3,0.6,0.8,1.1c0.1,0.1,0.2,0.4,0.3,0.7c0.2,0.6,0.2,0.6,0.6,1.7
	c0.3,0.9,0.5,1.6,0.5,2.1c0,0.3,0.1,0.6,0.2,0.6c0.1,0,0.2,0.7,0.2,1.8s-0.1,1.8-0.2,1.8c-0.1,0-0.2,0.3-0.2,0.7
	c0,0.4-0.1,0.7-0.2,0.7c-0.1,0-0.2,0.2-0.2,0.5c0,0.3-0.1,0.7-0.3,1c-0.1,0.3-0.3,0.6-0.3,0.7c-0.1,0.4-0.7,1.6-0.8,1.6
	c-0.1,0-0.1,0.1-0.1,0.3s-0.1,0.4-0.3,0.5C73,92.8,72.8,93,72.8,93c0,0.1-0.2,0.4-0.5,0.7c-0.3,0.3-0.8,0.8-1.1,1.1
	c-0.8,0.9-1.7,1.6-2,1.6c-0.1,0-0.3,0.2-0.4,0.3c-0.1,0.2-0.3,0.3-0.5,0.3c-0.1,0-0.2,0.1-0.2,0.2c0,0.1-0.2,0.2-0.3,0.2
	c-0.2,0-0.3,0.1-0.3,0.2c0,0.1-0.1,0.2-0.3,0.2c-0.2,0-0.3,0.1-0.3,0.2s-0.2,0.2-0.4,0.2c-0.2,0-0.4,0.1-0.5,0.1
	c-0.1,0.1-1,0.3-1.8,0.4c-0.1,0-0.2,0.1-0.2,0.1c-0.1,0.1-1.3,0.1-2.8,0.1s-2.7-0.1-2.8-0.1c-0.1-0.1-0.2-0.1-0.2-0.1
	c-1.2-0.1-2-0.3-2-0.4c0-0.1-0.1-0.1-0.2-0.1c-0.1,0-0.2-0.1-0.2-0.2s-0.1-0.2-0.3-0.2c-0.2,0-0.3-0.1-0.3-0.2
	c0-0.1-0.2-0.2-0.3-0.2s-0.3-0.1-0.3-0.2c0-0.1-0.1-0.2-0.2-0.2c-0.1,0-0.4-0.1-0.6-0.3c-0.2-0.2-0.5-0.4-0.7-0.6
	c-0.2-0.2-0.6-0.5-0.9-0.7C50.9,95.2,50,94.2,50,94c0-0.1-0.2-0.4-0.4-0.7c-0.2-0.2-0.4-0.5-0.4-0.6c0-0.1-0.2-0.2-0.3-0.4
	c-0.2-0.1-0.3-0.4-0.3-0.5c0-0.2-0.1-0.3-0.2-0.3c-0.1,0-0.2-0.1-0.2-0.3c0-0.2-0.1-0.3-0.2-0.3c-0.1,0-0.2-0.2-0.2-0.3
	c0-0.2-0.1-0.3-0.2-0.3c-0.1,0-0.2-0.2-0.2-0.4c0-0.2-0.1-0.4-0.1-0.4c-0.1,0-0.2-0.5-0.3-1s-0.2-1.1-0.3-1.2
	c-0.4-0.5,0.2-7.2,0.6-7.2c0.1,0,0.1-0.2,0.1-0.3c0-0.2,0.1-0.3,0.2-0.3c0.1,0,0.2-0.2,0.2-0.3c0-0.2,0.1-0.3,0.2-0.3
	c0.1,0,0.2-0.1,0.2-0.3c0-0.2,0.1-0.3,0.2-0.3c0.1,0,0.2-0.2,0.2-0.3c0-0.2,0.1-0.3,0.2-0.3c0.1,0,0.2-0.1,0.2-0.2
	c0-0.1,0.1-0.3,0.3-0.5c0.2-0.1,0.4-0.5,0.6-0.9c0.2-0.3,0.5-0.8,0.8-1c0.3-0.2,0.7-0.6,1-0.9c0.3-0.3,0.7-0.6,1-0.7
	c0.3-0.2,0.5-0.3,0.5-0.4s0.1-0.1,0.2-0.1c0.1,0,0.3-0.1,0.5-0.3c0.1-0.2,0.4-0.3,0.5-0.3c0.2,0,0.3-0.1,0.3-0.2
	c0-0.1,0.2-0.2,0.3-0.2c0.2,0,0.3-0.1,0.3-0.1c0-0.1,0.3-0.2,0.7-0.3c0.4-0.1,0.7-0.2,0.7-0.3s0.3-0.2,0.6-0.2
	c0.3,0,0.6-0.1,0.7-0.2c0.1-0.1,0.5-0.2,1-0.2c0.5,0,0.9-0.1,0.9-0.2c0-0.1,0.5-0.2,1.2-0.2C61.6,70,62.2,70.1,62.2,70.2"/>
<path id="path3" class="st2" d="M58.7,5.8c-0.1,0.2-0.2,0.2-0.5,0c-0.4-0.3-0.5-0.3-0.5,0c0,0.2-0.2,0.2-0.4,0.2
	c-0.2,0-0.4,0.1-0.3,0.2c0.1,0.1-0.1,0.2-0.2,0.2c-0.2,0-0.3,0.1-0.3,0.1c0,0.1-0.2,0.2-0.5,0.4c-0.3,0.1-1,0.7-1.6,1.4
	C53.7,9,53,9.5,52.9,9.5c-0.2,0-0.2,0-0.1,0.1c0.2,0.1-0.1,0.9-0.3,0.9c-0.1,0-0.1,0.1-0.1,0.3c0,0.2-0.1,0.3-0.2,0.3
	c-0.1,0-0.2,0.2-0.2,0.4c0,0.2-0.1,0.4-0.2,0.4c-0.1,0-0.2,0.3-0.2,0.6s-0.1,0.6-0.2,0.6c-0.1,0-0.1,0.5-0.1,1.5
	c0.1,1,0,1.6-0.1,1.7c-0.2,0.2-0.1,0.8,0.2,0.8c0.1,0,0.1,0.3,0.1,0.6c0,0.3,0.1,0.6,0.2,0.6c0.1,0,0.2,0.2,0.2,0.4
	c0,0.2,0.1,0.4,0.2,0.4c0.1,0,0.2,0.1,0.2,0.3c0,0.2,0.1,0.3,0.2,0.3c0.1,0,0.2,0.1,0.2,0.2c0,0.1,0.1,0.2,0.2,0.2
	c0.1,0,0.2,0.1,0.2,0.3c0,0.2-0.1,0.2-0.2,0.1c-0.1-0.1-0.1,0-0.1,0.1c0.1,0.1,0.2,0.2,0.3,0.1c0.1,0,0.6,0.4,1.3,1.1
	c0.6,0.6,1.2,1.2,1.4,1.2c0.1,0,0.2,0.1,0.2,0.2c0,0.1,0.1,0.2,0.2,0.2c0.1,0,0.2,0.1,0.2,0.2c0,0.1,0.1,0.2,0.2,0.2
	c0.1,0,0.2,0.1,0.2,0.2c0,0.1,0.2,0.2,0.4,0.2s0.4,0.1,0.4,0.2c0,0.1,0.2,0.2,0.5,0.2c0.3,0,0.5,0.1,0.5,0.1c0,0.1,1.1,0.1,2.4,0.1
	c1.3,0,2.4-0.1,2.4-0.1c0-0.1,0.2-0.1,0.5-0.1c0.3,0,0.5-0.1,0.5-0.2c0-0.1,0.2-0.2,0.3-0.2c0.2,0,0.3-0.1,0.3-0.2
	c0-0.1,0.2-0.2,0.3-0.2c0.2,0,0.3-0.1,0.3-0.2c0-0.1,0.1-0.2,0.2-0.2c0.1,0,0.2-0.1,0.2-0.1c0-0.3,0.7-0.6,0.9-0.3
	c0.1,0.2,0.1,0.2,0.1-0.1c0-0.2,0.3-0.6,0.7-0.9c0.4-0.4,0.7-0.7,0.7-0.8s0.1-0.2,0.2-0.2c0.1,0,0.2-0.1,0.2-0.2
	c0-0.1,0.1-0.2,0.2-0.2c0.1,0,0.2-0.1,0.2-0.2c0-0.1,0.1-0.2,0.2-0.2c0.1,0,0.2-0.1,0.2-0.2c0-0.1,0.1-0.2,0.2-0.2
	c0.2,0,0.2-0.1,0.1-0.4c-0.1-0.3,0-0.4,0.1-0.3c0.2,0.1,0.2,0,0.1-0.3c-0.1-0.3,0-0.5,0.2-0.5c0.2-0.1,0.2-0.2,0.2-0.7
	c-0.1-0.7,0-1.2,0.3-0.8c0.1,0.1,0.1-0.3,0.1-1.2c0-0.9-0.1-1.3-0.1-1.1c-0.2,0.5-0.4-0.3-0.3-1c0.1-0.5,0.1-0.6-0.2-0.6
	c-0.2,0-0.2-0.1-0.2-0.3c0-0.2,0.2-0.3,0.3-0.2c0.2,0,0.2,0,0-0.2c-0.1-0.1-0.3-0.2-0.4-0.2C70,11.7,70,11.6,70,11.3
	c0.1-0.3,0-0.4-0.1-0.3c-0.1,0.1-0.2,0-0.2-0.3c0-0.2-0.1-0.4-0.2-0.4c-0.1,0-0.2-0.1-0.2-0.2c0-0.1-0.2-0.3-0.3-0.5
	c-0.2-0.2-0.3-0.5-0.3-0.6s-0.1-0.2-0.2-0.2c-0.1,0-0.1-0.1-0.1-0.2c0.1-0.2,0-0.2-0.1-0.1c-0.1,0.1-0.2,0-0.2-0.1
	c0-0.1,0.1-0.2,0.2-0.2c0.2-0.1,0.2-0.1,0-0.2C68.1,7.9,68,7.9,68,8c0,0.1-0.1,0.2-0.2,0.2c-0.1,0-0.1-0.2-0.1-0.4
	c0.1-0.2,0.1-0.3,0-0.2c-0.1,0.1-0.2,0.2-0.3,0.2c-0.1,0-0.2-0.1-0.2-0.1c0-0.1-0.1-0.2-0.4-0.4c-0.3-0.1-0.5-0.3-0.4-0.4
	c0-0.1,0-0.3-0.1-0.3c-0.1,0-0.2,0-0.2,0.1c-0.1,0.2-1-0.2-1-0.4c0-0.1-0.2-0.1-0.4-0.1c-0.2,0-0.4-0.1-0.3-0.1
	c0.1-0.1,0-0.2-0.2-0.4s-0.2-0.1-0.2,0c0.2,0.3-0.3,0.4-0.6,0.2C63.1,5.5,58.8,5.5,58.7,5.8 M60.7,25.1c0.3,0,0.6,0,0.8,0
	c0.2,0,0-0.1-0.5-0.1C60.6,25,60.5,25.1,60.7,25.1 M12.1,39c-0.2,0.1-0.8,0.1-1.3,0c-0.6-0.1-1,0-1,0.1c0,0.1-0.2,0.2-0.5,0.2
	c-0.3,0-0.5,0.1-0.5,0.2c0,0.1-0.2,0.2-0.4,0.2c-0.3,0-0.3,0-0.1-0.2c0.2-0.2,0.2-0.2,0-0.1c-0.1,0-0.2,0.2-0.2,0.3
	c0,0.2-0.1,0.3-0.3,0.3c-0.2,0-0.4,0.2-0.5,0.3c-0.1,0.2-0.4,0.3-0.5,0.3c-0.2,0-0.3,0.1-0.3,0.2c0,0.1-0.2,0.4-0.5,0.7
	S5.6,42,5.6,42c0,0-0.1,0.2-0.3,0.5C5.2,42.7,5,43,5,43.2c0,0.1-0.1,0.2-0.2,0.2c-0.2,0-0.2,0.2-0.1,0.5c0.1,0.4,0,0.5-0.2,0.5
	c-0.1,0-0.3,0.1-0.4,0.2c-0.1,0.1,0,0.1,0.1,0.1c0.1-0.1,0.2,0.4,0.2,1.8c0,1.2,0.1,1.9,0.2,1.9c0.1,0,0.2,0.2,0.2,0.4
	c0,0.3-0.1,0.4-0.2,0.3c-0.1-0.1-0.1,0-0.1,0.1c0.1,0.1,0.2,0.2,0.4,0.2S5,49.5,5,49.7C5,49.8,5.1,50,5.2,50c0.1,0,0.2,0.1,0.3,0.3
	c0.1,0.3,1.8,2.1,1.8,1.9c0,0,0.2,0.1,0.4,0.2c0.2,0.2,0.4,0.3,0.3,0.4c0,0.1,0,0.2,0.1,0.2c0.1,0.1,0.2,0,0.2-0.1
	c0-0.1,0.1-0.2,0.2-0.2c0.1,0,0.2,0.1,0.2,0.2c0,0.1,0.2,0.2,0.4,0.2c0.2,0,0.4,0.1,0.4,0.2c0,0.1,0.7,0.2,1.9,0.2
	c1.2,0,1.9-0.1,1.9-0.2c0-0.1,0.1-0.2,0.3-0.2c0.4,0,1.6-0.6,2.1-1.1c0.2-0.2,0.7-0.6,1-0.9c0.4-0.3,0.7-0.7,0.7-0.9
	c0-0.2,0.1-0.3,0.2-0.3c0.1,0,0.2-0.1,0.2-0.2c0-0.1,0.1-0.2,0.2-0.2c0.1,0,0.2-0.1,0.2-0.3c0-0.2,0.1-0.3,0.2-0.3
	c0.1,0,0.2-0.2,0.1-0.4c-0.1-0.5,0-0.9,0.2-0.8c0.1,0.1,0.1-0.5,0.1-1.2c0-1-0.1-1.3-0.2-1.4c-0.1-0.1-0.2-0.3-0.1-0.6
	c0-0.3,0-0.5-0.1-0.5c-0.1,0-0.2-0.1-0.2-0.3c0-0.2-0.1-0.3-0.2-0.3c-0.1,0-0.2-0.1-0.2-0.2c0-0.1-0.1-0.2-0.2-0.2
	c-0.1,0-0.2-0.1-0.2-0.3c0-0.3-1.6-1.9-2.2-2.2c-0.3-0.1-0.5-0.3-0.5-0.4s-0.2-0.1-0.4-0.1c-0.2,0-0.4-0.1-0.4-0.2
	c0-0.1-0.1-0.1-0.3-0.1c-0.2,0-0.4,0-0.5-0.1C12.8,39,12.5,38.9,12.1,39 M60.5,72.8c-0.8,0-1.4,0.1-1.4,0.2c0,0.1-0.3,0.2-0.7,0.2
	c-0.4,0-0.7,0.1-0.7,0.2c0,0.1-0.2,0.2-0.5,0.2s-0.5,0.1-0.5,0.2c0,0.1-0.2,0.2-0.3,0.2s-0.3,0.1-0.3,0.2c0,0.1-0.1,0.2-0.3,0.2
	c-0.2,0-0.3,0.1-0.3,0.2c0,0.1-0.1,0.2-0.2,0.2c-0.1,0-0.2,0.1-0.2,0.2c0,0.1-0.1,0.1-0.3,0.1c-0.2,0-0.3,0-0.3,0
	c0,0.1-0.2,0.3-0.5,0.6c-0.3,0.3-1,0.9-1.4,1.4c-0.5,0.5-0.9,0.9-1.1,0.9c-0.1,0-0.2,0.1-0.1,0.2c0.2,0.3-0.1,0.8-0.3,0.8
	c-0.1,0-0.2,0.1-0.1,0.4c0.1,0.3,0,0.3-0.2,0.3c-0.2-0.1-0.3,0-0.2,0.3c0.1,0.3,0,0.4-0.1,0.4c-0.2,0-0.2,0.1-0.2,0.4
	c0,0.2,0,0.4-0.1,0.4c-0.1,0-0.2,0.3-0.2,0.6c0,0.3-0.1,0.6-0.2,0.6c-0.1,0-0.2,1-0.2,2.7c0,1.7,0.1,2.7,0.2,2.7
	c0.1,0,0.2,0.3,0.2,0.6c0,0.3,0.1,0.6,0.2,0.6c0.1,0,0.2,0.1,0.2,0.3c0,0.2,0.1,0.4,0.2,0.4c0.1,0.1,0.1,0.3,0.1,0.5
	c-0.1,0.3,0,0.4,0.2,0.3c0.2-0.1,0.3,0,0.2,0.4c0,0.3,0,0.4,0,0.3c0.1-0.3,0.3-0.2,0.6,0.4c0.3,0.7,0.4,1,0.1,0.8
	c-0.1-0.1-0.1,0-0.1,0.1c0.1,0.1,0.2,0.1,0.3,0.1c0.1,0,0.7,0.4,1.3,1.1c0.6,0.6,1.2,1.2,1.3,1.2c0.3,0,0.6,0.4,0.5,0.6
	c-0.1,0.1,0,0.1,0.2,0c0.4-0.1,0.7,0,0.4,0.3c-0.1,0.1,0,0.1,0.3,0c0.3-0.1,0.5,0,0.5,0.1c0,0.1,0.2,0.2,0.4,0.2s0.4,0.1,0.4,0.2
	c0,0.1,0.2,0.2,0.5,0.2c0.3,0,0.5,0.1,0.7,0.4c0.1,0.2,0.2,0.3,0.2,0.2c0-0.1,0.3-0.2,0.8-0.2c0.5,0,0.7,0.1,0.7,0.2
	c-0.1,0.1,0.4,0.2,1.2,0.2c0.9,0,1.3-0.1,1.2-0.2c-0.1-0.1,0.3-0.2,0.8-0.2c0.7,0,0.9-0.1,0.8-0.2c-0.1-0.1,0-0.2,0.4-0.1
	c0.3,0,0.5,0,0.6-0.1c0-0.1,0.2-0.2,0.4-0.2c0.2,0,0.3-0.1,0.3-0.2c0-0.1,0.2-0.2,0.4-0.1c0.2,0,0.4,0,0.3-0.1
	c-0.1-0.2,0.5-0.5,0.9-0.5c0.3,0,0.3,0,0.1,0.2c-0.2,0.2-0.2,0.2,0,0.1c0.1,0,0.2-0.2,0.2-0.3c-0.1-0.3,0.7-0.9,1-0.7
	c0.1,0.1,0.2,0.1,0.1,0c-0.1-0.1,0.3-0.6,0.8-1.1c0.5-0.5,0.9-0.8,1-0.7c0,0.1,0,0,0-0.2c-0.1-0.3,0-0.5,0.3-0.7
	c0.2-0.2,0.3-0.4,0.3-0.6c0-0.1,0.1-0.3,0.2-0.3c0.1,0,0.2-0.2,0.2-0.4c0-0.3,0.1-0.3,0.3-0.3c0.2,0,0.3,0,0.3-0.1s-0.1-0.2-0.2-0.2
	c-0.1,0-0.2-0.1-0.2-0.2S71.9,89,72,89c0.1,0,0.2-0.2,0.2-0.3c0-0.2,0.2-0.5,0.4-0.7c0.2-0.2,0.3-0.3,0.2-0.2
	c-0.1,0.1-0.2-0.1-0.2-0.4c0-0.3,0.1-0.5,0.1-0.4c0.1,0,0.1-1,0.1-2.2c0-1.3-0.1-2.3-0.1-2.3s-0.1-0.3-0.1-0.6s-0.1-0.6-0.2-0.6
	c-0.2,0-0.2-0.7,0-0.7c0.1,0,0-0.1-0.2-0.2c-0.2-0.1-0.4-0.3-0.4-0.5c0-0.2-0.1-0.3-0.2-0.3c-0.1,0-0.2-0.1-0.2-0.2
	c0-0.1-0.1-0.2-0.2-0.2c-0.2,0-0.2-0.6,0-0.7c0.1-0.1,0.1-0.1-0.1,0c-0.3,0.1-0.4,0-0.6-0.4c-0.1-0.3-0.7-1-1.4-1.6
	c-0.6-0.6-1.1-1.2-1-1.3c0.1-0.1,0-0.2-0.1-0.2c-0.2-0.1-0.2,0-0.1,0.2c0.1,0.2,0.1,0.2-0.3,0c-0.2-0.1-0.4-0.3-0.4-0.4
	c0-0.1-0.1-0.2-0.4-0.1c-0.3,0.1-0.3,0-0.3-0.2c0.1-0.2,0-0.3-0.3-0.2c-0.4,0.1-0.4,0.1-0.3-0.2c0.1-0.1,0-0.3-0.1-0.4
	c-0.1-0.1-0.2,0-0.2,0.1s-0.1,0.2-0.2,0.2c-0.1,0-0.2-0.1-0.2-0.2c0-0.1-0.2-0.2-0.5-0.2c-0.3,0-0.5-0.1-0.5-0.2
	c0-0.1-0.3-0.2-0.7-0.2c-0.4,0-0.7-0.1-0.7-0.1C63,72.8,62.2,72.7,60.5,72.8"/>
<path id="path4" class="st3" d="M46,18.5c0,0.3,0.1,0.6,0.2,0.6c0.1,0.1,0.1-0.1,0.1-0.4C46.1,17.9,46,17.8,46,18.5 M46.3,23.9
	c-0.3,0.2-0.4,0.4-0.4,0.5c0.1,0.1,0.1,0,0.1-0.1s0.1-0.2,0.2-0.2c0.2,0,0.7-0.5,0.6-0.6C46.8,23.6,46.5,23.7,46.3,23.9 M50.4,26.3
	c0.3,0.3,0.7,0.6,0.8,0.8c0.2,0.2,0.3,0.2,0.3,0.1c0-0.2-1.3-1.4-1.5-1.4C49.9,25.8,50.1,26,50.4,26.3 M56.9,30
	c0.1,0.1,0.3,0.2,0.5,0.2c0.4,0,0.4,0,0-0.2C57,29.8,56.8,29.8,56.9,30 M64.7,30l-0.6,0.1l0.7,0.1c0.7,0.1,0.9,0,0.7-0.2
	C65.3,30,65,29.9,64.7,30 M62.4,30.3l-1.2,0.1l1.2,0c0.6,0,1.3,0,1.4-0.1c0.2-0.1,0.2-0.2,0-0.1C63.7,30.2,63.1,30.3,62.4,30.3
	 M29.1,33.8c-0.2,0.1-0.4,0.2-0.5,0.3c-0.1,0.1,0.1,0.1,0.4-0.1c0.3-0.1,0.5-0.3,0.5-0.3C29.5,33.7,29.5,33.7,29.1,33.8 M32.9,36.4
	c-0.6,0.4-0.6,0.5,0,0.2c0.2-0.1,0.5-0.3,0.5-0.4C33.5,36,33.5,35.9,32.9,36.4 M18.1,36.6c-0.1,0.1,0,0.4,0.2,0.6
	c0.2,0.2,0.3,0.3,0.3,0.2c0-0.1-0.1-0.2-0.1-0.2c-0.1,0-0.2-0.2-0.2-0.4C18.3,36.6,18.2,36.5,18.1,36.6 M60.9,38.2
	c0,0.3,0,0.5,0.1,0.3c0-0.2,0-0.4,0-0.6S60.9,37.8,60.9,38.2 M59.5,38c0,0.1,0.1,0.3,0.2,0.5c0.1,0.2,0.2,0.2,0.1-0.1
	C59.7,38,59.5,37.7,59.5,38 M63.8,41.2c0,1.5,0.2,1.5,0.2,0.1c0-0.6,0-1.2-0.1-1.2C63.8,40.2,63.8,40.7,63.8,41.2 M22.4,41.7
	c-0.2,0.2-0.3,1,0,1.3c0.1,0.2,0.1,0.1,0.1-0.4c-0.1-0.4,0-0.7,0.1-0.9C22.8,41.5,22.7,41.4,22.4,41.7 M26.4,42.7l-0.5,0.5
	L26.4,42.7c0.6-0.4,0.7-0.5,0.5-0.5C26.9,42.2,26.7,42.4,26.4,42.7 M22.5,43.7c0,0.2,0.1,0.5,0.1,0.7l0.1,0.3v-0.3
	c0-0.2-0.1-0.5-0.1-0.7l-0.1-0.3V43.7 M57.3,48.4c0,0.2,0,0.4,0.1,0.4c0,0,0.1-0.2,0.1-0.4c0-0.2,0-0.4-0.1-0.4
	C57.4,48,57.3,48.2,57.3,48.4 M22.4,49.7c-0.1,0.1-0.2,0.3-0.2,0.5c0,0.2-0.1,0.3-0.2,0.4c-0.1,0.1-0.2,0.4-0.1,0.7
	c0,0.4,0,0.5,0.1,0.2c0.1-0.7,0.6-1.8,0.7-1.7c0.1,0,0.1,0,0.1-0.1C22.8,49.4,22.6,49.5,22.4,49.7 M62.2,50.4c0,0.1,0.1,0.2,0.2,0.2
	c0.1,0,0.2-0.1,0.2-0.2c0-0.1-0.1-0.2-0.2-0.2C62.2,50.2,62.2,50.3,62.2,50.4 M62.7,53.6c0,0.2,0.1,0.4,0.2,0.6
	c0.1,0.2,0.1,0.1,0.1-0.2C62.8,53.3,62.7,53.2,62.7,53.6 M19.1,54.8c-0.3,0.2-0.4,0.5-0.4,0.5c0,0,0.3-0.2,0.6-0.4
	C19.8,54.2,19.8,54.2,19.1,54.8 M60.8,54.6c0,0.1,0.1,0.2,0.2,0.2s0.2-0.1,0.2-0.2c0-0.1-0.1-0.2-0.2-0.2S60.8,54.4,60.8,54.6
	 M26.5,55.2c0.4,0.6,0.8,0.8,0.8,0.6c0-0.1-1.2-1.3-1.3-1.3C26,54.5,26.2,54.8,26.5,55.2 M60.9,56.1c0.1,0.2,0,0.4-0.1,0.5
	c-0.1,0.1-0.1,0.2,0,0.3c0.1,0.1,0.1,0.3,0,0.4c-0.1,0.1-0.1,0.1,0,0c0.2-0.2,0.3-1.3,0.1-1.4C60.8,55.8,60.8,55.9,60.9,56.1
	 M29,59.9c0,0,0.3,0.3,0.7,0.7c0.4,0.3,0.7,0.5,0.7,0.5c0-0.1-0.3-0.4-0.7-0.7C29.3,60.1,29,59.8,29,59.9 M32.2,60.2
	c0.6,0.5,0.6,0.5,0.5,0.2c0-0.1-0.3-0.3-0.5-0.4l-0.4-0.2L32.2,60.2 M28.6,61c0,0.1,0,0.2,0.1,0.3c0.1,0.1,0.3,0.2,0.3,0.1
	c0-0.1,0-0.2-0.1-0.3C28.8,60.9,28.7,60.9,28.6,61 M31,61.7c0,0,0.2,0.2,0.5,0.4c0.3,0.2,0.5,0.3,0.4,0.1C31.8,62.1,31,61.6,31,61.7
	 M30,62.2c0,0,0.2,0.3,0.5,0.5l0.5,0.5l-0.5-0.5C30.1,62.2,30,62.1,30,62.2 M40.2,65.5c0,0.1,0.3,0.2,0.5,0.2
	c0.4,0.1,0.4,0.1,0.1-0.1C40.4,65.3,40.1,65.3,40.2,65.5 M59.2,66.2l-0.9,0.1l0.9,0c0.5,0,0.9,0,1-0.1c0.1-0.1,0.1-0.2,0.1-0.1
	C60.1,66,59.7,66.1,59.2,66.2 M56.9,66.5c-0.4,0.1-0.9,0.2-1.1,0.2c-0.3,0.1-0.5,0.2-0.6,0.2c-0.1,0.2,0.7,0,1.1-0.2
	c0.2-0.1,0.5-0.1,0.7-0.2s0.6-0.1,0.8-0.2l0.3-0.1l-0.3,0C57.7,66.4,57.3,66.4,56.9,66.5 M67.4,67.3c0.5,0.2,0.6,0.2,0.5,0
	c-0.1-0.1-0.3-0.2-0.5-0.2C67.1,67.2,67.1,67.2,67.4,67.3 M32.5,68.2c0.4,0.4,0.5,0.4,0.4,0.1c-0.1-0.1-0.3-0.3-0.4-0.3
	C32.1,67.9,32.1,67.9,32.5,68.2 M51.4,68.3c-0.1,0.1,0,0.2,0.1,0.2c0.2,0,0.1,0,0,0.2c-0.2,0.1-0.2,0.2,0,0.2c0.4,0,0.5-0.2,0.2-0.5
	C51.6,68.2,51.5,68.2,51.4,68.3 M49.6,70c-1.7,1.6-2.6,2.5-2.6,2.5c0,0,0.7-0.6,1.6-1.3c0.8-0.8,1.5-1.4,1.4-1.5
	C49.9,69.7,49.8,69.9,49.6,70 M37.9,70.6c0.3,0.3,0.5,0.5,0.7,0.5c0.1,0-0.1-0.2-0.3-0.4C37.8,70.3,37.5,70.2,37.9,70.6 M43.1,70.8
	c0.2,0.2,0.5,0.3,0.5,0.3c0.3,0,0.1-0.1-0.4-0.4l-0.5-0.3L43.1,70.8 M38.7,74.4c0,0.3,0.4,0.7,0.5,0.5c0-0.1-0.1-0.3-0.2-0.4
	C38.8,74.3,38.7,74.2,38.7,74.4 M43.1,79.5c-0.1,0.3,0,0.3,0.1,0.1c0.3-0.2,0.3-0.5,0.1-0.5C43.3,79.2,43.2,79.3,43.1,79.5"/>
<path id="path5" class="st4" d="M59.3,5.3c-0.3,0.3,0.2,0.4,1.6,0.4c1.6,0,2.1-0.1,2.1-0.3C63,5.2,59.4,5.1,59.3,5.3 M58,5.7
	c0.1,0.3,0.6,0.3,0.7,0c0.1-0.2,0-0.3-0.3-0.3C58.1,5.5,58,5.6,58,5.7 M63.3,5.6c0,0.1,0.1,0.2,0.2,0.2c0.3,0.1,0.6,0,0.5-0.2
	C64,5.5,63.3,5.5,63.3,5.6 M57,6c0,0.1,0.2,0.2,0.3,0.2c0.2,0,0.3-0.1,0.3-0.2s-0.1-0.2-0.3-0.2C57.2,5.8,57,5.9,57,6 M64.4,6
	c-0.1,0.1,0.1,0.2,0.2,0.2c0.2,0,0.3-0.1,0.2-0.2c-0.1-0.1-0.2-0.2-0.2-0.2S64.5,5.9,64.4,6 M56.3,6.3c0,0.1-0.1,0.2-0.2,0.2
	c-0.1,0-0.2,0.1-0.2,0.1c0,0.1-0.2,0.2-0.5,0.4c-1,0.5-2.8,2.5-2.3,2.5c0,0,0.6-0.5,1.2-1.1c0.6-0.6,1.3-1.2,1.6-1.4
	c0.3-0.1,0.5-0.3,0.5-0.4c0-0.1,0.2-0.1,0.3-0.1c0.2,0,0.3-0.1,0.2-0.2c-0.1-0.1-0.2-0.2-0.3-0.2C56.4,6.2,56.3,6.2,56.3,6.3
	 M65.2,6.3c0,0.2,0.9,0.6,1,0.5c0.1-0.1-0.5-0.6-0.8-0.6C65.3,6.2,65.2,6.2,65.2,6.3 M66.3,7c0,0.2,0.7,0.6,0.8,0.5
	c0.1-0.1-0.4-0.6-0.6-0.6C66.4,6.8,66.3,6.9,66.3,7 M67.3,7.7c-0.1,0.1,0,0.2,0.1,0.2s0.4,0.2,0.7,0.5c0.3,0.3,0.5,0.5,0.6,0.4
	c0.1-0.1-1-1.3-1.2-1.3C67.4,7.5,67.3,7.6,67.3,7.7 M68.7,9.1c0,0.1,0.2,0.3,0.3,0.5c0.2,0.2,0.3,0.4,0.3,0.5c0,0.1,0.1,0.2,0.2,0.2
	c0.1,0,0.2,0.1,0.2,0.3c0,0.2,0.1,0.3,0.2,0.3c0.1,0,0.2,0.2,0.2,0.4c0.1,0.4,0.1,0.4,0.2,0.1c0.1-0.2,0.1-0.3-0.1-0.4
	c-0.1,0-0.2-0.2-0.2-0.4c0-0.2-0.1-0.3-0.2-0.3c-0.1,0-0.2-0.1-0.2-0.2c0-0.1-0.2-0.4-0.4-0.7C68.9,9,68.7,8.9,68.7,9.1 M52.5,9.9
	c-0.2,0.3-0.3,0.6-0.1,0.6c0.1,0,0.5-0.5,0.6-0.7C53,9.6,52.8,9.7,52.5,9.9 M52,10.9c0,0.1,0.1,0.2,0.2,0.2c0.1,0,0.2-0.1,0.2-0.2
	c0-0.1-0.1-0.2-0.2-0.2C52.1,10.7,52,10.8,52,10.9 M51.8,11.5c-0.1,0.2-0.1,0.3,0,0.4c0.2,0.2,0.3-0.1,0.2-0.4
	C51.9,11.3,51.9,11.3,51.8,11.5 M70.3,11.9c-0.2,0.2-0.1,0.6,0.1,0.6c0.1,0,0.2-0.1,0.2-0.2C70.7,12,70.4,11.8,70.3,11.9 M51.4,12.3
	c-0.2,0.2-0.1,0.9,0.1,0.9c0.1,0,0.2-0.2,0.2-0.5C51.7,12.1,51.6,12.1,51.4,12.3 M70.6,12.9c-0.2,0.2-0.1,0.9,0,1.2
	c0.1,0.2,0.2,0.1,0.2-0.1C71,13.6,70.8,12.8,70.6,12.9 M51,15.1c0,1.1,0.1,1.4,0.2,1.4c0.4-0.1,0.3-2.8,0-2.8
	C51.1,13.7,51,14.3,51,15.1 M70.6,16.4c-0.1,0.2-0.1,0.5,0,0.7l0.1,0.5l0.2-0.5C71.1,16.6,70.8,15.9,70.6,16.4 M51.3,17.6
	c0,0.2,0.1,0.5,0.2,0.5c0.1,0.1,0.2-0.1,0.2-0.4c0-0.3-0.1-0.5-0.2-0.5C51.4,17.2,51.3,17.3,51.3,17.6 M70.3,18
	c-0.1,0.2,0,0.5,0.3,0.5c0.1,0,0.2-0.1,0.2-0.3C70.7,17.8,70.4,17.7,70.3,18 M51.7,18.5c0,0.3,0.4,1.1,0.5,1.1
	c0.1,0,0.1-0.1,0.1-0.2c0-0.1-0.1-0.2-0.2-0.2c-0.1,0-0.2-0.2-0.2-0.4c0-0.2-0.1-0.4-0.2-0.4C51.7,18.3,51.7,18.4,51.7,18.5 M70,19
	c0,0.2,0.1,0.3,0.2,0.3c0.1,0,0.2-0.1,0.2-0.2s-0.1-0.3-0.2-0.3C70.1,18.7,70,18.8,70,19 M69.7,19.7c0,0.1-0.1,0.2-0.2,0.2
	c-0.1,0-0.2,0.1-0.2,0.2c0,0.1-0.1,0.2-0.2,0.2c-0.1,0-0.2,0.1-0.2,0.2c0,0.1-0.1,0.2-0.2,0.2c-0.1,0-0.2,0.1-0.2,0.2
	S68.4,21.7,68,22c-0.4,0.4-0.6,0.7-0.6,0.8c0.1,0.1,1.6-1.3,1.6-1.5c0-0.1,0.2-0.3,0.3-0.4c0.2-0.1,0.3-0.4,0.3-0.5
	c0-0.2,0.1-0.3,0.2-0.3c0.1,0,0.2-0.1,0.2-0.2c0-0.1-0.1-0.2-0.2-0.2C69.7,19.5,69.7,19.6,69.7,19.7 M52.3,20.1
	c0,0.1,0.1,0.2,0.2,0.2c0.1,0,0.3,0.3,0.4,0.7c0.2,0.4,0.3,0.7,0.4,0.7c0.1,0,0.5,0.4,1.1,0.9c0.5,0.5,1.1,0.9,1.2,0.9
	c0.1,0,0.2,0.1,0.2,0.1s0.1,0.2,0.3,0.2c0.2,0.1,0.4,0.1,0.5,0.2c0.1,0.1,0.2,0,0.2-0.1s-0.1-0.2-0.2-0.2c-0.1,0-0.2-0.1-0.2-0.2
	c0-0.1-0.1-0.2-0.2-0.2c-0.1,0-0.2-0.1-0.2-0.2c0-0.1-0.1-0.2-0.2-0.2c-0.3,0-2.6-2.4-2.6-2.6c0-0.1-0.1-0.2-0.2-0.2
	c-0.1,0-0.2-0.1-0.2-0.2c0-0.1-0.1-0.2-0.2-0.2C52.4,19.8,52.3,19.9,52.3,20.1 M66.5,23.2c-0.2,0.2-0.4,0.3-0.5,0.3
	c-0.1,0-0.2,0.1-0.2,0.2c0,0.1-0.2,0.2-0.3,0.2c-0.2,0-0.3,0.1-0.3,0.2c0,0.1-0.2,0.2-0.3,0.2c-0.2,0-0.3,0.1-0.3,0.2
	c0,0.1,0.1,0.2,0.2,0.2s0.3-0.1,0.3-0.2c0.1-0.1,0.2-0.2,0.4-0.2c0.2,0,0.3-0.1,0.3-0.1s0.2-0.2,0.5-0.4c0.5-0.3,0.9-0.6,0.9-0.7
	C67.2,22.7,66.9,22.8,66.5,23.2 M57,24.2c0,0.1,1.2,0.6,1.4,0.6c0.1,0,0.2-0.1,0.2-0.2c0-0.1-0.2-0.2-0.5-0.2
	c-0.3,0-0.5-0.1-0.5-0.2c0-0.1-0.1-0.2-0.3-0.2C57.2,24.2,57,24.2,57,24.2 M63.5,24.7c0,0.1,0.1,0.2,0.3,0.2c0.2,0,0.4-0.1,0.4-0.2
	c0.1-0.1-0.1-0.2-0.3-0.2C63.7,24.5,63.5,24.6,63.5,24.7 M59.1,24.9C59,24.9,59,25,59.1,25c1.3,0.2,5.1,0,4-0.2
	C62.5,24.7,59.3,24.8,59.1,24.9 M10.8,38.8c-0.1,0.1,0,0.2,0,0.2s0.3,0,0.5,0.1c0.5,0.1,1.1-0.1,1-0.3
	C12.1,38.6,10.9,38.6,10.8,38.8 M9.1,39.2c-0.1,0.1,0.1,0.2,0.3,0.2c0.2,0,0.4-0.1,0.4-0.2c0-0.1-0.1-0.2-0.3-0.2S9.1,39.1,9.1,39.2
	 M13,39.1c0,0.2,0.4,0.4,0.6,0.2c0.2-0.2,0.1-0.4-0.2-0.4C13.2,39,13,39.1,13,39.1 M8,39.7c-0.7,0.4-1.2,0.8-1.1,1
	c0.1,0.1,0.2-0.1,0.4-0.3C7.5,40.2,7.7,40,7.9,40c0.1,0,0.3-0.1,0.3-0.2c0-0.1,0.1-0.2,0.3-0.2c0.2,0,0.3-0.1,0.3-0.2
	C8.8,39.3,8.7,39.3,8,39.7 M14,39.5c0,0.1,0.1,0.2,0.3,0.2c0.2,0,0.3-0.1,0.3-0.2c0-0.1-0.1-0.2-0.3-0.2C14.2,39.3,14,39.4,14,39.5
	 M14.8,39.8c0,0.1,0.2,0.2,0.5,0.4c0.3,0.1,0.8,0.6,1.2,1c0.4,0.4,0.8,0.8,0.9,0.8c0.4,0-0.5-1.1-1.7-1.8
	C15,39.6,14.8,39.6,14.8,39.8 M6.1,41c-1.1,1.2-1.8,2.4-1.3,2.4c0.1,0,0.2-0.1,0.2-0.2c0-0.1,0.2-0.4,0.3-0.7
	C5.5,42.2,5.7,42,5.6,42c0,0,0.1-0.2,0.4-0.5s0.5-0.6,0.5-0.7C6.5,40.6,6.4,40.6,6.1,41 M17.5,42.4c0,0.1,0.1,0.2,0.2,0.2
	c0.1,0,0.2,0.1,0.2,0.2c0,0.1,0.1,0.2,0.2,0.2c0.1,0,0.2,0.1,0.2,0.3c0,0.2,0.1,0.3,0.2,0.3c0.3,0,0.2-0.2-0.2-1
	C17.8,42.1,17.5,42,17.5,42.4 M4.3,43.9c0,0.2,0.1,0.4,0.2,0.4s0.2-0.2,0.2-0.4s-0.1-0.4-0.2-0.4S4.3,43.7,4.3,43.9 M18.5,44.4
	c0,0.1,0,0.3,0,0.4c0,0.1,0.1,0.1,0.2,0.2c0.1,0,0.2-0.1,0.2-0.4s-0.1-0.4-0.2-0.4C18.6,44.2,18.5,44.3,18.5,44.4 M4.1,44.6
	c-0.2,0.2-0.1,3.6,0.1,3.6c0.1,0,0.2-0.7,0.2-1.8C4.3,44.5,4.3,44.4,4.1,44.6 M18.4,47.8c-0.1,0.3,0,0.8,0.2,0.7
	c0.1-0.1,0.1-0.2,0.1-0.4C18.8,47.6,18.6,47.4,18.4,47.8 M4.3,48.7c0,0.2,0.1,0.4,0.2,0.4c0.1,0.1,0.2-0.1,0.2-0.3
	c0-0.2-0.1-0.4-0.2-0.4S4.3,48.5,4.3,48.7 M18.2,49.2c0,0.2-0.1,0.3-0.2,0.3c-0.1,0-0.2,0.1-0.2,0.2c0,0.1-0.1,0.2-0.2,0.2
	c-0.1,0-0.2,0.1-0.2,0.3c0,0.2-0.3,0.6-0.7,0.9c-0.4,0.3-0.8,0.7-1,0.9s-0.7,0.5-1,0.7c-0.5,0.2-0.6,0.3-0.4,0.4
	c0.6,0.1,3.5-2.2,3.5-2.9c0-0.1,0.1-0.2,0.1-0.2c0.1,0,0.5-0.8,0.5-1c0-0.1-0.1-0.1-0.2-0.1C18.2,48.8,18.2,49,18.2,49.2 M4.7,49.7
	c0.1,0.2,0.1,0.4,0.1,0.5c0,0.1,0.1,0.1,0.3,0.1c0.1,0,0.3,0.1,0.3,0.3c0,0.6,2.3,2.6,2.6,2.2c0.1-0.1-0.1-0.3-0.3-0.4
	c-0.2-0.1-0.4-0.2-0.4-0.2c0,0.2-1.7-1.6-1.8-1.9C5.4,50.1,5.2,50,5.2,50C5.1,50,5,49.8,5,49.7c0-0.2-0.1-0.3-0.2-0.3
	C4.7,49.3,4.7,49.5,4.7,49.7 M8.2,53c0,0.2,0.8,0.5,1.1,0.5c0.1,0,0.2-0.1,0.2-0.2c0-0.1-0.2-0.2-0.4-0.2c-0.2,0-0.4-0.1-0.4-0.2
	c0-0.1-0.1-0.2-0.2-0.2C8.3,52.8,8.2,52.9,8.2,53 M13.3,53.3c0,0.1,0.1,0.2,0.3,0.2c0.2,0,0.3-0.1,0.3-0.2c0-0.1-0.1-0.2-0.3-0.2
	C13.5,53.2,13.3,53.2,13.3,53.3 M10,53.7c0,0.1,0.6,0.2,1.4,0.2c0.8,0,1.4-0.1,1.4-0.2c0-0.1-0.6-0.2-1.4-0.2
	C10.6,53.5,10,53.6,10,53.7 M60.3,72.7c-0.1,0.1,0.2,0.2,0.7,0.2s0.8-0.1,0.7-0.2c-0.1-0.1-0.4-0.2-0.7-0.2S60.3,72.6,60.3,72.7
	 M58.1,73c-0.1,0.1,0.1,0.2,0.5,0.2c0.3,0,0.6-0.1,0.6-0.2c0-0.1-0.2-0.2-0.5-0.2C58.4,72.8,58.1,72.9,58.1,73 M63,73
	c0,0.1,0.2,0.2,0.5,0.2S64,73.1,64,73c0-0.1-0.2-0.2-0.5-0.2S63,72.9,63,73 M57,73.3c0,0.1,0.2,0.2,0.4,0.2c0.2,0,0.4-0.1,0.4-0.2
	c0-0.1-0.2-0.2-0.4-0.2C57.2,73.2,57,73.2,57,73.3 M64.3,73.3c0,0.1,0.2,0.2,0.4,0.2s0.4-0.1,0.4-0.2c0-0.1-0.2-0.2-0.4-0.2
	S64.3,73.2,64.3,73.3 M56.2,73.7c0,0.1-0.1,0.2-0.3,0.2c-0.2,0-0.3,0.1-0.3,0.2c0,0.1-0.2,0.2-0.5,0.3c-0.3,0.1-0.5,0.2-0.5,0.4
	c0,0.1-0.1,0.2-0.2,0.1c-0.2-0.1-3.1,2.7-2.9,2.9c0.1,0.1,0.5-0.3,1-0.8c1.1-1.1,2.1-2,2.4-2c0.1,0,0.2-0.1,0.2-0.2
	c0-0.1,0.1-0.2,0.2-0.2c0.1,0,0.2-0.1,0.2-0.2c0-0.1,0.2-0.2,0.3-0.2c0.2,0,0.3-0.1,0.3-0.2c0-0.1,0.2-0.2,0.3-0.2s0.3-0.1,0.3-0.2
	c0-0.1-0.2-0.2-0.3-0.2S56.2,73.6,56.2,73.7 M65.3,73.7c0,0.1,0.1,0.2,0.2,0.2c0.1,0,0.2-0.1,0.2-0.2c0-0.1-0.1-0.2-0.2-0.2
	C65.4,73.5,65.3,73.6,65.3,73.7 M66,74c0,0.1,0.1,0.2,0.2,0.2c0.1,0,0.2-0.1,0.2-0.2c0-0.1-0.1-0.2-0.2-0.2C66.1,73.8,66,73.9,66,74
	 M66.7,74.3c0,0.1,0.1,0.2,0.2,0.2c0.1,0,0.2-0.1,0.2-0.2c0-0.1-0.1-0.2-0.2-0.2C66.8,74.2,66.7,74.2,66.7,74.3 M67.3,74.5
	c0,0.1,0.2,0.3,0.3,0.4c0.4,0.2,0.4,0,0.1-0.4C67.4,74.3,67.3,74.3,67.3,74.5 M68.2,75.1c0,0.1,0.5,0.6,1.1,1.2
	c0.6,0.6,1.2,1.3,1.4,1.6c0.1,0.3,0.3,0.5,0.4,0.5c0.1,0,0.1,0.1,0.1,0.3c0,0.2,0.1,0.3,0.2,0.3c0.1,0,0.2,0.1,0.2,0.2
	c0,0.1,0.1,0.2,0.2,0.2c0.1,0,0.2,0.2,0.2,0.3c0,0.2,0.1,0.3,0.2,0.3c0.1,0,0.2-0.2,0.2-0.3c0-0.2-0.1-0.3-0.2-0.3
	c-0.1,0-0.2-0.1-0.2-0.3c0-0.2-0.1-0.3-0.2-0.3c-0.1,0-0.2-0.1-0.2-0.2c0-0.1-0.1-0.2-0.2-0.2c-0.1,0-0.2-0.1-0.2-0.2
	c0-0.3-0.6-1-1.7-2.1C68.6,75.1,68.2,74.8,68.2,75.1 M50.9,78.2c-0.2,0.3-0.1,0.4,0,0.4c0.2,0,0.4-0.3,0.4-0.7
	C51.3,77.7,51.1,77.8,50.9,78.2 M50.5,78.9c-0.1,0.1,0,0.4,0.2,0.4c0.1,0,0.2-0.1,0.2-0.2C50.8,78.8,50.6,78.8,50.5,78.9 M50.2,79.7
	c0,0.1,0.1,0.2,0.2,0.2c0.1,0,0.2-0.1,0.2-0.2c0-0.1-0.1-0.2-0.2-0.2C50.2,79.5,50.2,79.6,50.2,79.7 M49.8,80.5
	c0,0.2,0.1,0.3,0.2,0.3c0.1,0,0.2-0.2,0.2-0.3c0-0.2-0.1-0.3-0.2-0.3C49.9,80.2,49.8,80.3,49.8,80.5 M72.2,80.8
	c0,0.2,0.1,0.3,0.2,0.3c0.1,0,0.2-0.2,0.2-0.3c0-0.2-0.1-0.3-0.2-0.3C72.2,80.5,72.2,80.6,72.2,80.8 M49.6,81.1
	c-0.2,0.2-0.1,0.9,0.1,0.9c0.1,0,0.2-0.2,0.2-0.5C49.8,81,49.8,80.9,49.6,81.1 M72.5,81.8c0,0.3,0.1,0.5,0.2,0.5
	c0.1,0,0.2-0.2,0.2-0.4c0-0.2-0.1-0.5-0.2-0.5C72.6,81.4,72.5,81.5,72.5,81.8 M49.3,82.4c-0.2,0.2-0.1,4.1,0.1,4.4
	c0.1,0.2,0.2-0.5,0.2-2.1c0-1.3,0-2.4-0.1-2.4C49.4,82.3,49.3,82.4,49.3,82.4 M72.8,83.4c-0.1,0.5-0.1,1.8,0,2.5
	c0.2,0.9,0.4,0.2,0.4-1.4C73.2,83.1,73,82.6,72.8,83.4 M72.5,87.3c0,0.3,0.1,0.5,0.2,0.4c0.1-0.1,0.2-0.2,0.2-0.4
	c0-0.2-0.1-0.4-0.2-0.4C72.6,86.9,72.5,87,72.5,87.3 M49.5,87.7c0,0.2,0.1,0.5,0.2,0.5c0.1,0.1,0.2-0.1,0.2-0.4
	c0-0.3-0.1-0.5-0.2-0.5C49.6,87.3,49.5,87.5,49.5,87.7 M72.2,88.6c0,0.2-0.1,0.4-0.2,0.4c-0.1,0-0.2,0.1-0.2,0.2
	c0,0.4,0.2,0.3,0.5-0.2c0.3-0.5,0.3-0.9,0-0.9C72.2,88.2,72.2,88.4,72.2,88.6 M49.8,88.8c0,0.2,0.1,0.3,0.2,0.3
	c0.1,0,0.2,0.2,0.2,0.3c0,0.2,0.1,0.3,0.2,0.3c0.1,0,0.2-0.1,0.2-0.2s-0.1-0.3-0.2-0.3c-0.1-0.1-0.2-0.2-0.2-0.4
	c0-0.2-0.1-0.3-0.2-0.3C49.9,88.5,49.8,88.6,49.8,88.8 M71.5,89.9c0,0.1,0.1,0.2,0.2,0.2c0.1,0,0.2-0.1,0.2-0.2
	c0-0.1-0.1-0.2-0.2-0.2C71.6,89.7,71.5,89.8,71.5,89.9 M50.4,90.2c-0.1,0.1,0,0.2,0.2,0.3c0.2,0.1,0.2,0.2,0.2,0.4
	c-0.1,0.2,0.3,0.7,1.9,2.4c0.6,0.6,1.2,1.1,1.2,1.1s-0.4-0.6-1.1-1.2c-0.6-0.6-1.3-1.4-1.5-1.8c-0.2-0.4-0.4-0.7-0.4-0.7
	c-0.1,0-0.1-0.1-0.1-0.3C50.8,90,50.6,89.9,50.4,90.2 M71.2,90.6c0,0.1,0.1,0.2,0.2,0.2c0.1,0,0.2-0.1,0.2-0.2
	c0-0.1-0.1-0.2-0.2-0.2C71.2,90.3,71.2,90.4,71.2,90.6 M70.7,91.2c-0.1,0.1-0.2,0.4-0.3,0.5c-0.1,0.3-0.8,1-2.6,2.6
	c-0.2,0.2-0.5,0.3-0.6,0.3s-0.4,0.1-0.5,0.2c-0.2,0.1-0.5,0.2-0.6,0.2c-0.2,0-0.3,0.1-0.3,0.2c0,0.1-0.1,0.2-0.3,0.2
	c-0.2,0-0.4,0.1-0.4,0.2c-0.1,0.1,0.1,0.2,0.3,0.2c0.2,0,0.4-0.1,0.4-0.2c0-0.1,0.2-0.2,0.3-0.2c0.2,0,0.3-0.1,0.3-0.2
	c0-0.1,0.1-0.2,0.3-0.2c0.3,0,1-0.4,1.6-1c0.2-0.2,0.5-0.4,0.5-0.4c0.2,0,1.5-1.3,1.5-1.5c0-0.1,0.2-0.4,0.4-0.6
	c0.4-0.4,0.5-0.8,0.3-0.8C71,91,70.8,91.1,70.7,91.2 M54.4,94.7c0.2,0.2,0.4,0.3,0.5,0.2c0.2-0.1-0.2-0.6-0.5-0.6
	C54.2,94.3,54.2,94.4,54.4,94.7 M55.8,95.3c0,0.1,0.8,0.5,1.1,0.5c0.1,0,0.2-0.1,0.2-0.2c0-0.1-0.2-0.2-0.4-0.2s-0.4-0.1-0.4-0.2
	c0-0.1-0.1-0.2-0.2-0.2C55.9,95.2,55.8,95.2,55.8,95.3 M57.3,96c0,0.1,0.2,0.2,0.4,0.2s0.4-0.1,0.4-0.2s-0.2-0.2-0.4-0.2
	S57.3,95.9,57.3,96 M64.1,96c0.1,0.1,0.2,0.2,0.4,0.2c0.2,0,0.3-0.1,0.3-0.2s-0.2-0.2-0.4-0.2C64.2,95.8,64,95.9,64.1,96 M58.6,96.3
	c0.1,0.1,0.4,0.2,0.7,0.2s0.6-0.1,0.7-0.2c0.1-0.1-0.2-0.2-0.7-0.2S58.5,96.2,58.6,96.3 M62.4,96.3c0.1,0.1,0.4,0.2,0.7,0.2
	c0.3,0,0.6-0.1,0.7-0.2c0.1-0.1-0.2-0.2-0.7-0.2C62.6,96.2,62.4,96.2,62.4,96.3"/>
</svg>
